<?xml version="1.0" encoding="utf8" standalone="no"?>
<svg height="507.992" viewBox="0 0 264.588 507.992" width="264.58801" xml:space="preserve" xmlns="http://www.w3.org/2000/svg"><defs><pattern height="69" patternUnits="userSpaceOnUse" viewBox="2.125 -70.896 69 69" width="69" x="-178.296" y="549.546">
	
		<path d="m71.125-1.896h-69v-69h69z" fill="none"></path>
		<path d="m71.125-1.896h-69v-69h69z" fill="#f6bb60"></path>
		
			<path d="m61.772-71.653c.018.072.007.127-.026.19-.053.101-.112.063-.165.128-.05.063-.099.276-.079.362-.169.058-.01.227-.015.35-.002.05-.041.105-.045.161-.01.119.017.266.068.37 .097.198.268.413.435.544 .19.148.365.572.608.631 .177.042.384-.104.543-.143 .18-.043.397.01.571-.053 .222-.079.127-.337.288-.45 .104-.074.287-.01.406-.051 .2-.069.339-.263.376-.46 .016-.082.01-.145.039-.221 .039-.103.111-.16.09-.293-.01-.062-.052-.12-.064-.187-.022-.114.002-.224 0-.337-.003-.2.017-.379-.078-.55-.38-.688-1.236-.929-1.975-.789-.18.034-.287.126-.442.207-.17.088-.139.166-.318.224-.081.026-.216.124-.215.224 .001.115.005.051.012.169-.021.011-.021-.005-.03-.025" fill="#fff"></path>
			<path d="m54.105-71.653c.018.072.007.127-.026.19-.053.101-.112.063-.165.128-.05.063-.099.276-.079.362-.169.058-.01.227-.015.35-.002.05-.041.105-.045.161-.01.119.017.266.068.37 .097.198.268.413.435.544 .19.148.365.572.608.631 .177.042.384-.104.543-.143 .18-.043.397.01.571-.053 .222-.079.127-.337.288-.45 .104-.074.287-.01.406-.051 .2-.069.339-.263.376-.46 .016-.082.01-.145.039-.221 .039-.103.111-.16.09-.293-.01-.062-.052-.12-.064-.187-.022-.114.002-.224 0-.337-.003-.2.017-.379-.078-.55-.38-.688-1.236-.929-1.975-.789-.18.034-.287.126-.442.207-.17.088-.139.166-.318.224-.081.026-.216.124-.215.224 .001.115.005.051.012.169-.021.011-.021-.005-.03-.025" fill="#fff"></path>
			<path d="m46.439-71.653c.018.072.007.127-.026.19-.053.101-.112.063-.165.128-.05.063-.099.276-.079.362-.169.058-.01.227-.015.35-.002.05-.041.105-.045.161-.01.119.017.266.068.37 .097.198.268.413.435.544 .19.148.365.572.608.631 .177.042.384-.104.543-.143 .18-.043.397.01.571-.053 .222-.079.127-.337.288-.45 .104-.074.287-.01.406-.051 .2-.069.339-.263.376-.46 .016-.082.01-.145.039-.221 .039-.103.111-.16.09-.293-.01-.062-.052-.12-.064-.187-.022-.114.002-.224 0-.337-.003-.2.017-.379-.078-.55-.38-.688-1.236-.929-1.975-.789-.18.034-.287.126-.442.207-.17.088-.139.166-.318.224-.081.026-.216.124-.215.224 .001.115.005.051.012.169-.021.011-.021-.005-.03-.025" fill="#fff"></path>
			<path d="m38.772-71.653c.018.072.007.127-.026.19-.053.101-.112.063-.165.128-.05.063-.099.276-.079.362-.169.058-.01.227-.015.35-.002.05-.041.105-.045.161-.01.119.017.266.068.37 .097.198.268.413.435.544 .19.148.365.572.608.631 .177.042.384-.104.543-.143 .18-.043.397.01.571-.053 .222-.079.127-.337.288-.45 .104-.074.287-.01.406-.051 .2-.069.339-.263.376-.46 .016-.082.01-.145.039-.221 .039-.103.111-.16.09-.293-.01-.062-.052-.12-.064-.187-.022-.114.002-.224 0-.337-.003-.2.017-.379-.078-.55-.38-.688-1.236-.929-1.975-.789-.18.034-.287.126-.442.207-.17.088-.139.166-.318.224-.081.026-.216.124-.215.224 .001.115.005.051.012.169-.021.011-.021-.005-.03-.025" fill="#fff"></path>
			<path d="m31.105-71.653c.018.072.007.127-.026.19-.053.101-.112.063-.165.128-.05.063-.099.276-.079.362-.169.058-.01.227-.015.35-.002.05-.041.105-.045.161-.01.119.017.266.068.37 .097.198.268.413.435.544 .19.148.365.572.608.631 .177.042.384-.104.543-.143 .18-.043.397.01.571-.053 .222-.079.127-.337.288-.45 .104-.074.287-.01.406-.051 .2-.069.339-.263.376-.46 .016-.082.01-.145.039-.221 .039-.103.111-.16.09-.293-.01-.062-.052-.12-.064-.187-.022-.114.002-.224 0-.337-.003-.2.017-.379-.078-.55-.38-.688-1.236-.929-1.975-.789-.18.034-.287.126-.442.207-.17.088-.139.166-.318.224-.081.026-.216.124-.215.224 .001.115.005.051.012.169-.021.011-.021-.005-.03-.025" fill="#fff"></path>
			<path d="m23.439-71.653c.018.072.007.127-.026.19-.053.101-.112.063-.165.128-.05.063-.099.276-.079.362-.169.058-.01.227-.015.35-.002.05-.041.105-.045.161-.01.119.017.266.068.37 .097.198.268.413.435.544 .19.148.365.572.608.631 .177.042.384-.104.543-.143 .18-.043.397.01.571-.053 .222-.079.127-.337.288-.45 .104-.074.287-.01.406-.051 .2-.069.339-.263.376-.46 .016-.082.01-.145.039-.221 .039-.103.111-.16.09-.293-.01-.062-.052-.12-.064-.187-.022-.114.002-.224 0-.337-.003-.2.017-.379-.078-.55-.38-.688-1.236-.929-1.975-.789-.18.034-.287.126-.442.207-.17.088-.139.166-.318.224-.081.026-.216.124-.215.224 .001.115.005.051.012.169-.021.011-.021-.005-.03-.025" fill="#fff"></path>
			<path d="m15.772-71.653c.018.072.007.127-.026.19-.053.101-.112.063-.165.128-.05.063-.099.276-.079.362-.169.058-.01.227-.015.35-.002.05-.041.105-.045.161-.01.119.017.266.068.37 .097.198.268.413.435.544 .19.148.365.572.608.631 .177.042.384-.104.543-.143 .18-.043.397.01.571-.053 .222-.079.127-.337.288-.45 .104-.074.287-.01.406-.051 .2-.069.339-.263.376-.46 .016-.082.01-.145.039-.221 .039-.103.111-.16.09-.293-.01-.062-.052-.12-.064-.187-.022-.114.002-.224 0-.337-.003-.2.017-.379-.078-.55-.38-.688-1.236-.929-1.975-.789-.18.034-.287.126-.442.207-.17.088-.139.166-.318.224-.081.026-.216.124-.215.224 .001.115.005.051.012.169-.021.011-.021-.005-.03-.025" fill="#fff"></path>
			<path d="m8.105-71.653c.018.072.007.127-.026.19-.053.101-.112.063-.165.128-.05.063-.099.276-.079.362-.169.058-.01.227-.015.35-.002.05-.041.105-.045.161-.01.119.017.266.068.37 .097.198.268.413.435.544 .19.148.365.572.608.631 .177.042.384-.104.543-.143 .18-.043.397.01.571-.053 .222-.079.127-.337.288-.45 .104-.074.287-.01.406-.051 .2-.069.339-.263.376-.46 .016-.082.01-.145.039-.221 .039-.103.111-.16.09-.293-.01-.062-.052-.12-.064-.187-.022-.114.002-.224 0-.337-.003-.2.017-.379-.078-.55-.38-.688-1.236-.929-1.975-.789-.18.034-.287.126-.442.207-.17.088-.139.166-.318.224-.081.026-.216.124-.215.224 .001.115.005.051.012.169-.021.011-.021-.005-.03-.025" fill="#fff"></path>
			<path d="m.439-71.653c.018.072.008.127-.026.19-.052.101-.113.063-.165.128-.051.063-.099.276-.079.362-.169.058-.01.227-.015.35-.002.05-.041.105-.045.161-.01.119.017.266.068.37 .097.198.268.413.435.544 .19.148.365.572.608.631 .177.042.384-.104.543-.143 .18-.043.397.01.571-.053 .222-.079.127-.337.288-.45 .104-.074.287-.01.406-.051 .2-.07.339-.263.376-.46 .016-.082.01-.145.039-.221 .038-.103.111-.16.09-.293-.01-.062-.051-.12-.064-.187-.021-.114.002-.224 0-.337-.003-.2.017-.379-.078-.55-.38-.688-1.236-.929-1.975-.789-.18.034-.287.126-.442.207-.17.088-.139.166-.318.224-.081.026-.215.124-.215.224 .002.115.005.051.012.169-.021.011-.021-.005-.03-.025" fill="#fff"></path>
		
		
			<path d="m69.439-71.653c.018.072.008.127-.026.19-.052.101-.113.063-.165.128-.051.063-.099.276-.079.362-.169.058-.01.227-.015.35-.002.05-.041.105-.045.161-.01.119.017.266.068.37 .097.198.268.413.435.544 .19.148.365.572.608.631 .177.042.384-.104.543-.143 .18-.043.397.01.571-.053 .222-.079.127-.337.288-.45 .104-.074.287-.01.406-.051 .2-.07.339-.263.376-.46 .016-.082.01-.145.039-.221 .038-.103.111-.16.09-.293-.01-.062-.051-.12-.064-.187-.021-.114.002-.224 0-.337-.003-.2.017-.379-.078-.55-.38-.688-1.236-.929-1.975-.789-.18.034-.287.126-.442.207-.17.088-.139.166-.318.224-.081.026-.215.124-.215.224 .002.115.005.051.012.169-.021.011-.021-.005-.03-.025" fill="#fff"></path>
		
		<path d="m.495-71.653c.018.072.008.127-.026.19-.052.101-.113.063-.165.128-.051.063-.099.276-.079.362-.169.058-.01.227-.015.35-.002.05-.041.105-.045.161-.01.119.017.266.068.37 .097.198.268.413.435.544 .19.148.365.572.608.631 .177.042.384-.104.543-.143 .18-.043.397.01.571-.053 .222-.079.127-.337.288-.45 .104-.074.287-.01.406-.051 .2-.07.339-.263.376-.46 .016-.082.01-.145.039-.221 .038-.103.111-.16.09-.293-.01-.062-.051-.12-.064-.187-.021-.114.002-.224 0-.337-.003-.2.017-.379-.078-.55-.38-.688-1.236-.929-1.975-.789-.18.034-.287.126-.442.207-.17.088-.139.166-.318.224-.081.026-.215.124-.215.224 .003.116.006.052.013.17-.021.011-.021-.005-.03-.025" fill="#fff"></path>
		
			
				<path d="m69.439-64.001c.018.072.007.127-.026.19-.053.101-.112.063-.165.128-.05.063-.099.276-.079.362-.169.058-.01.227-.015.35-.002.05-.041.105-.045.161-.01.119.017.266.068.37 .097.198.268.413.435.544 .19.148.365.572.608.631 .177.042.384-.104.543-.143 .18-.043.397.01.571-.053 .222-.079.127-.337.288-.45 .104-.074.287-.01.406-.051 .2-.069.339-.263.376-.46 .016-.082.01-.145.039-.221 .039-.103.111-.16.09-.293-.01-.062-.052-.12-.064-.187-.022-.114.002-.224 0-.337-.003-.2.017-.379-.078-.55-.38-.688-1.236-.929-1.975-.789-.18.034-.287.126-.442.207-.17.088-.139.166-.318.224-.081.026-.216.124-.215.224 .001.115.005.051.012.169-.021.011-.021-.005-.03-.025" fill="#fff"></path>
				<path d="m61.778-64.001c.018.072.007.127-.026.19-.053.101-.112.063-.165.128-.05.063-.099.276-.079.362-.169.058-.009.227-.015.35-.002.05-.041.105-.045.161-.01.119.017.266.068.37 .097.198.268.413.435.544 .19.148.365.572.608.631 .177.042.384-.104.543-.143 .18-.043.397.01.571-.053 .222-.079.127-.337.288-.45 .104-.074.287-.01.406-.051 .2-.069.339-.263.376-.46 .016-.082.01-.145.039-.221 .039-.103.111-.16.09-.293-.01-.062-.052-.12-.064-.187-.022-.114.002-.224 0-.337-.003-.2.017-.379-.078-.55-.38-.688-1.236-.929-1.975-.789-.18.034-.287.126-.442.207-.17.088-.139.166-.318.224-.081.026-.216.124-.215.224 .001.115.005.051.012.169-.021.011-.021-.005-.03-.025" fill="#fff"></path>
				<path d="m54.118-64.001c.018.072.007.127-.026.19-.053.101-.112.063-.165.128-.05.063-.099.276-.079.362-.169.058-.009.227-.015.35-.002.05-.041.105-.045.161-.01.119.017.266.068.37 .097.198.268.413.435.544 .19.148.365.572.608.631 .177.042.384-.104.543-.143 .18-.043.397.01.571-.053 .222-.079.127-.337.288-.45 .104-.074.287-.01.406-.051 .2-.069.339-.263.376-.46 .016-.082.01-.145.039-.221 .039-.103.111-.16.09-.293-.01-.062-.052-.12-.064-.187-.022-.114.002-.224 0-.337-.003-.2.017-.379-.078-.55-.38-.688-1.236-.929-1.975-.789-.18.034-.287.126-.442.207-.17.088-.139.166-.318.224-.081.026-.216.124-.215.224 .001.115.005.051.012.169-.021.011-.021-.005-.03-.025" fill="#fff"></path>
				<path d="m46.458-64.001c.018.072.007.127-.026.19-.053.101-.112.063-.165.128-.05.063-.099.276-.079.362-.169.058-.009.227-.015.35-.002.05-.041.105-.045.161-.01.119.017.266.068.37 .097.198.268.413.435.544 .19.148.365.572.608.631 .177.042.384-.104.543-.143 .18-.043.397.01.571-.053 .222-.079.127-.337.288-.45 .104-.074.287-.01.406-.051 .2-.069.339-.263.376-.46 .016-.082.01-.145.039-.221 .039-.103.111-.16.09-.293-.01-.062-.052-.12-.064-.187-.022-.114.002-.224 0-.337-.003-.2.017-.379-.078-.55-.38-.688-1.236-.929-1.975-.789-.18.034-.287.126-.442.207-.17.088-.139.166-.318.224-.081.026-.216.124-.215.224 .001.115.005.051.012.169-.021.011-.021-.005-.03-.025" fill="#fff"></path>
				<path d="m38.797-64.001c.018.072.007.127-.026.19-.053.101-.112.063-.165.128-.05.063-.099.276-.079.362-.169.058-.009.227-.015.35-.002.05-.041.105-.045.161-.01.119.017.266.068.37 .097.198.268.413.435.544 .19.148.365.572.608.631 .177.042.384-.104.543-.143 .18-.043.397.01.571-.053 .222-.079.127-.337.288-.45 .104-.074.287-.01.406-.051 .2-.069.339-.263.376-.46 .016-.082.01-.145.039-.221 .039-.103.111-.16.09-.293-.01-.062-.052-.12-.064-.187-.022-.114.002-.224 0-.337-.003-.2.017-.379-.078-.55-.38-.688-1.236-.929-1.975-.789-.18.034-.287.126-.442.207-.17.088-.139.166-.318.224-.081.026-.216.124-.215.224 .001.115.005.051.012.169-.021.011-.021-.005-.03-.025" fill="#fff"></path>
				<path d="m31.137-64.001c.018.072.007.127-.026.19-.053.101-.112.063-.165.128-.05.063-.099.276-.079.362-.169.058-.009.227-.015.35-.002.05-.041.105-.045.161-.01.119.017.266.068.37 .097.198.268.413.435.544 .19.148.365.572.608.631 .177.042.384-.104.543-.143 .18-.043.397.01.571-.053 .222-.079.127-.337.288-.45 .104-.074.287-.01.406-.051 .2-.069.339-.263.376-.46 .016-.082.01-.145.039-.221 .039-.103.111-.16.09-.293-.01-.062-.052-.12-.064-.187-.022-.114.002-.224 0-.337-.003-.2.017-.379-.078-.55-.38-.688-1.236-.929-1.975-.789-.18.034-.287.126-.442.207-.17.088-.139.166-.318.224-.081.026-.216.124-.215.224 .001.115.005.051.012.169-.021.011-.021-.005-.03-.025" fill="#fff"></path>
				<path d="m23.477-64.001c.018.072.007.127-.026.19-.053.101-.112.063-.165.128-.05.063-.099.276-.079.362-.169.058-.009.227-.015.35-.002.05-.041.105-.045.161-.01.119.017.266.068.37 .097.198.268.413.435.544 .19.148.365.572.608.631 .177.042.384-.104.543-.143 .18-.043.397.01.571-.053 .222-.079.127-.337.288-.45 .104-.074.287-.01.406-.051 .2-.069.339-.263.376-.46 .016-.082.01-.145.039-.221 .039-.103.111-.16.09-.293-.01-.062-.052-.12-.064-.187-.022-.114.002-.224 0-.337-.003-.2.017-.379-.078-.55-.38-.688-1.236-.929-1.975-.789-.18.034-.287.126-.442.207-.17.088-.139.166-.318.224-.081.026-.216.124-.215.224 .001.115.005.051.012.169-.021.011-.021-.005-.03-.025" fill="#fff"></path>
				<path d="m15.816-64.001c.018.072.007.127-.026.19-.053.101-.112.063-.165.128-.05.063-.099.276-.079.362-.169.058-.009.227-.015.35-.002.05-.041.105-.045.161-.01.119.017.266.068.37 .097.198.268.413.435.544 .19.148.365.572.608.631 .177.042.384-.104.543-.143 .18-.043.397.01.571-.053 .222-.079.127-.337.288-.45 .104-.074.287-.01.406-.051 .2-.069.339-.263.376-.46 .016-.082.01-.145.039-.221 .039-.103.111-.16.09-.293-.01-.062-.052-.12-.064-.187-.022-.114.002-.224 0-.337-.003-.2.017-.379-.078-.55-.38-.688-1.236-.929-1.975-.789-.18.034-.287.126-.442.207-.17.088-.139.166-.318.224-.081.026-.216.124-.215.224 .001.115.005.051.012.169-.021.011-.021-.005-.03-.025" fill="#fff"></path>
				<path d="m8.156-64.001c.018.072.007.127-.026.19-.053.101-.112.063-.165.128-.05.063-.099.276-.079.362-.169.058-.009.227-.015.35-.002.05-.041.105-.045.161-.01.119.017.266.068.37 .097.198.268.413.435.544 .19.148.365.572.608.631 .177.042.384-.104.543-.143 .18-.043.397.01.571-.053 .222-.079.127-.337.288-.45 .104-.074.287-.01.406-.051 .2-.069.339-.263.376-.46 .016-.082.01-.145.039-.221 .039-.103.111-.16.09-.293-.01-.062-.052-.12-.064-.187-.022-.114.002-.224 0-.337-.003-.2.017-.379-.078-.55-.38-.688-1.236-.929-1.975-.789-.18.034-.287.126-.442.207-.17.088-.139.166-.318.224-.081.026-.216.124-.215.224 .001.115.005.051.012.169-.021.011-.021-.005-.03-.025" fill="#fff"></path>
				<path d="m.495-64.001c.018.072.007.127-.026.19-.053.101-.112.063-.165.128-.05.063-.099.276-.079.362-.169.058-.01.227-.015.35-.002.05-.041.105-.045.161-.01.119.017.266.068.37 .097.198.268.413.435.544 .19.148.365.572.608.631 .177.042.384-.104.543-.143 .181-.042.398.011.572-.052 .222-.079.127-.337.288-.45 .104-.074.287-.01.406-.051 .2-.069.339-.263.376-.46 .016-.082.01-.145.039-.221 .039-.103.111-.16.09-.293-.01-.062-.052-.12-.064-.187-.022-.114.002-.224 0-.337-.003-.2.017-.379-.078-.55-.38-.688-1.236-.929-1.975-.789-.18.034-.287.126-.442.207-.17.088-.139.166-.318.224-.081.026-.216.124-.215.224 .001.115.005.051.012.169-.021.011-.021-.005-.03-.025" fill="#fff"></path>
			
			
				<path d="m69.439-56.348c.018.072.007.127-.026.19-.053.101-.112.063-.165.128-.05.063-.099.276-.079.362-.169.058-.01.227-.015.35-.002.05-.041.105-.045.161-.01.119.017.266.068.37 .097.198.268.413.435.544 .19.148.365.572.608.631 .177.042.384-.104.543-.143 .18-.043.397.01.571-.053 .222-.079.127-.337.288-.45 .104-.074.287-.01.406-.051 .2-.069.339-.263.376-.46 .016-.082.01-.145.039-.221 .039-.103.111-.16.09-.293-.01-.062-.052-.12-.064-.187-.022-.114.002-.224 0-.337-.003-.2.017-.379-.078-.55-.38-.688-1.236-.929-1.975-.789-.18.034-.287.126-.442.207-.17.088-.139.166-.318.224-.081.026-.216.124-.215.224 .001.115.005.051.012.169-.021.011-.021-.005-.03-.025" fill="#fff"></path>
				<path d="m61.778-56.348c.018.072.007.127-.026.19-.053.101-.112.063-.165.128-.05.063-.099.276-.079.362-.169.058-.009.227-.015.35-.002.05-.041.105-.045.161-.01.119.017.266.068.37 .097.198.268.413.435.544 .19.148.365.572.608.631 .177.042.384-.104.543-.143 .18-.043.397.01.571-.053 .222-.079.127-.337.288-.45 .104-.074.287-.01.406-.051 .2-.069.339-.263.376-.46 .016-.082.01-.145.039-.221 .039-.103.111-.16.09-.293-.01-.062-.052-.12-.064-.187-.022-.114.002-.224 0-.337-.003-.2.017-.379-.078-.55-.38-.688-1.236-.929-1.975-.789-.18.034-.287.126-.442.207-.17.088-.139.166-.318.224-.081.026-.216.124-.215.224 .001.115.005.051.012.169-.021.011-.021-.005-.03-.025" fill="#fff"></path>
				<path d="m54.118-56.348c.018.072.007.127-.026.19-.053.101-.112.063-.165.128-.05.063-.099.276-.079.362-.169.058-.009.227-.015.35-.002.05-.041.105-.045.161-.01.119.017.266.068.37 .097.198.268.413.435.544 .19.148.365.572.608.631 .177.042.384-.104.543-.143 .18-.043.397.01.571-.053 .222-.079.127-.337.288-.45 .104-.074.287-.01.406-.051 .2-.069.339-.263.376-.46 .016-.082.01-.145.039-.221 .039-.103.111-.16.09-.293-.01-.062-.052-.12-.064-.187-.022-.114.002-.224 0-.337-.003-.2.017-.379-.078-.55-.38-.688-1.236-.929-1.975-.789-.18.034-.287.126-.442.207-.17.088-.139.166-.318.224-.081.026-.216.124-.215.224 .001.115.005.051.012.169-.021.011-.021-.005-.03-.025" fill="#fff"></path>
				<path d="m46.458-56.348c.018.072.007.127-.026.19-.053.101-.112.063-.165.128-.05.063-.099.276-.079.362-.169.058-.009.227-.015.35-.002.05-.041.105-.045.161-.01.119.017.266.068.37 .097.198.268.413.435.544 .19.148.365.572.608.631 .177.042.384-.104.543-.143 .18-.043.397.01.571-.053 .222-.079.127-.337.288-.45 .104-.074.287-.01.406-.051 .2-.069.339-.263.376-.46 .016-.082.01-.145.039-.221 .039-.103.111-.16.09-.293-.01-.062-.052-.12-.064-.187-.022-.114.002-.224 0-.337-.003-.2.017-.379-.078-.55-.38-.688-1.236-.929-1.975-.789-.18.034-.287.126-.442.207-.17.088-.139.166-.318.224-.081.026-.216.124-.215.224 .001.115.005.051.012.169-.021.011-.021-.005-.03-.025" fill="#fff"></path>
				<path d="m38.797-56.348c.018.072.007.127-.026.19-.053.101-.112.063-.165.128-.05.063-.099.276-.079.362-.169.058-.009.227-.015.35-.002.05-.041.105-.045.161-.01.119.017.266.068.37 .097.198.268.413.435.544 .19.148.365.572.608.631 .177.042.384-.104.543-.143 .18-.043.397.01.571-.053 .222-.079.127-.337.288-.45 .104-.074.287-.01.406-.051 .2-.069.339-.263.376-.46 .016-.082.01-.145.039-.221 .039-.103.111-.16.09-.293-.01-.062-.052-.12-.064-.187-.022-.114.002-.224 0-.337-.003-.2.017-.379-.078-.55-.38-.688-1.236-.929-1.975-.789-.18.034-.287.126-.442.207-.17.088-.139.166-.318.224-.081.026-.216.124-.215.224 .001.115.005.051.012.169-.021.011-.021-.005-.03-.025" fill="#fff"></path>
				<path d="m31.137-56.348c.018.072.007.127-.026.19-.053.101-.112.063-.165.128-.05.063-.099.276-.079.362-.169.058-.009.227-.015.35-.002.05-.041.105-.045.161-.01.119.017.266.068.37 .097.198.268.413.435.544 .19.148.365.572.608.631 .177.042.384-.104.543-.143 .18-.043.397.01.571-.053 .222-.079.127-.337.288-.45 .104-.074.287-.01.406-.051 .2-.069.339-.263.376-.46 .016-.082.01-.145.039-.221 .039-.103.111-.16.09-.293-.01-.062-.052-.12-.064-.187-.022-.114.002-.224 0-.337-.003-.2.017-.379-.078-.55-.38-.688-1.236-.929-1.975-.789-.18.034-.287.126-.442.207-.17.088-.139.166-.318.224-.081.026-.216.124-.215.224 .001.115.005.051.012.169-.021.011-.021-.005-.03-.025" fill="#fff"></path>
				<path d="m23.477-56.348c.018.072.007.127-.026.19-.053.101-.112.063-.165.128-.05.063-.099.276-.079.362-.169.058-.009.227-.015.35-.002.05-.041.105-.045.161-.01.119.017.266.068.37 .097.198.268.413.435.544 .19.148.365.572.608.631 .177.042.384-.104.543-.143 .18-.043.397.01.571-.053 .222-.079.127-.337.288-.45 .104-.074.287-.01.406-.051 .2-.069.339-.263.376-.46 .016-.082.01-.145.039-.221 .039-.103.111-.16.09-.293-.01-.062-.052-.12-.064-.187-.022-.114.002-.224 0-.337-.003-.2.017-.379-.078-.55-.38-.688-1.236-.929-1.975-.789-.18.034-.287.126-.442.207-.17.088-.139.166-.318.224-.081.026-.216.124-.215.224 .001.115.005.051.012.169-.021.011-.021-.005-.03-.025" fill="#fff"></path>
				<path d="m15.816-56.348c.018.072.007.127-.026.19-.053.101-.112.063-.165.128-.05.063-.099.276-.079.362-.169.058-.009.227-.015.35-.002.05-.041.105-.045.161-.01.119.017.266.068.37 .097.198.268.413.435.544 .19.148.365.572.608.631 .177.042.384-.104.543-.143 .18-.043.397.01.571-.053 .222-.079.127-.337.288-.45 .104-.074.287-.01.406-.051 .2-.069.339-.263.376-.46 .016-.082.01-.145.039-.221 .039-.103.111-.16.09-.293-.01-.062-.052-.12-.064-.187-.022-.114.002-.224 0-.337-.003-.2.017-.379-.078-.55-.38-.688-1.236-.929-1.975-.789-.18.034-.287.126-.442.207-.17.088-.139.166-.318.224-.081.026-.216.124-.215.224 .001.115.005.051.012.169-.021.011-.021-.005-.03-.025" fill="#fff"></path>
				<path d="m8.156-56.348c.018.072.007.127-.026.19-.053.101-.112.063-.165.128-.05.063-.099.276-.079.362-.169.058-.009.227-.015.35-.002.05-.041.105-.045.161-.01.119.017.266.068.37 .097.198.268.413.435.544 .19.148.365.572.608.631 .177.042.384-.104.543-.143 .18-.043.397.01.571-.053 .222-.079.127-.337.288-.45 .104-.074.287-.01.406-.051 .2-.069.339-.263.376-.46 .016-.082.01-.145.039-.221 .039-.103.111-.16.09-.293-.01-.062-.052-.12-.064-.187-.022-.114.002-.224 0-.337-.003-.2.017-.379-.078-.55-.38-.688-1.236-.929-1.975-.789-.18.034-.287.126-.442.207-.17.088-.139.166-.318.224-.081.026-.216.124-.215.224 .001.115.005.051.012.169-.021.011-.021-.005-.03-.025" fill="#fff"></path>
				<path d="m.495-56.348c.018.072.007.127-.026.19-.053.101-.112.063-.165.128-.05.063-.099.276-.079.362-.169.058-.01.227-.015.35-.002.05-.041.105-.045.161-.01.119.017.266.068.37 .097.198.268.413.435.544 .19.148.365.572.608.631 .177.042.384-.104.543-.143 .18-.043.397.01.571-.053 .222-.079.127-.337.288-.45 .104-.074.287-.01.406-.051 .2-.069.339-.263.376-.46 .016-.082.01-.145.039-.221 .039-.103.111-.16.09-.293-.01-.062-.052-.12-.064-.187-.022-.114.002-.224 0-.337-.003-.2.017-.379-.078-.55-.38-.688-1.236-.929-1.975-.789-.18.034-.287.126-.442.207-.17.088-.139.166-.318.224-.081.026-.216.124-.215.224 .003.117.006.053.013.171-.021.011-.021-.005-.03-.025" fill="#fff"></path>
			
			
				<path d="m69.439-48.695c.018.072.007.127-.026.19-.053.101-.112.063-.165.128-.05.063-.099.276-.079.362-.169.058-.01.227-.015.35-.002.05-.041.105-.045.161-.01.119.017.266.068.37 .097.198.268.413.435.544 .19.148.365.572.608.631 .177.042.384-.104.543-.143 .18-.043.397.01.571-.053 .222-.079.127-.337.288-.45 .104-.074.287-.01.406-.051 .2-.069.339-.263.376-.46 .016-.082.01-.145.039-.221 .039-.103.111-.16.09-.293-.01-.062-.052-.12-.064-.187-.022-.114.002-.224 0-.337-.003-.2.017-.379-.078-.55-.38-.688-1.236-.929-1.975-.789-.18.034-.287.126-.442.207-.17.088-.139.166-.318.224-.081.026-.216.124-.215.224 .001.115.005.051.012.169-.021.011-.021-.005-.03-.025" fill="#fff"></path>
				<path d="m61.778-48.695c.018.072.007.127-.026.19-.053.101-.112.063-.165.128-.05.063-.099.276-.079.362-.169.058-.009.227-.015.35-.002.05-.041.105-.045.161-.01.119.017.266.068.37 .097.198.268.413.435.544 .19.148.365.572.608.631 .177.042.384-.104.543-.143 .18-.043.397.01.571-.053 .222-.079.127-.337.288-.45 .104-.074.287-.01.406-.051 .2-.069.339-.263.376-.46 .016-.082.01-.145.039-.221 .039-.103.111-.16.09-.293-.01-.062-.052-.12-.064-.187-.022-.114.002-.224 0-.337-.003-.2.017-.379-.078-.55-.38-.688-1.236-.929-1.975-.789-.18.034-.287.126-.442.207-.17.088-.139.166-.318.224-.081.026-.216.124-.215.224 .001.115.005.051.012.169-.021.011-.021-.005-.03-.025" fill="#fff"></path>
				<path d="m54.118-48.695c.018.072.007.127-.026.19-.053.101-.112.063-.165.128-.05.063-.099.276-.079.362-.169.058-.009.227-.015.35-.002.05-.041.105-.045.161-.01.119.017.266.068.37 .097.198.268.413.435.544 .19.148.365.572.608.631 .177.042.384-.104.543-.143 .18-.043.397.01.571-.053 .222-.079.127-.337.288-.45 .104-.074.287-.01.406-.051 .2-.069.339-.263.376-.46 .016-.082.01-.145.039-.221 .039-.103.111-.16.09-.293-.01-.062-.052-.12-.064-.187-.022-.114.002-.224 0-.337-.003-.2.017-.379-.078-.55-.38-.688-1.236-.929-1.975-.789-.18.034-.287.126-.442.207-.17.088-.139.166-.318.224-.081.026-.216.124-.215.224 .001.115.005.051.012.169-.021.011-.021-.005-.03-.025" fill="#fff"></path>
				<path d="m46.458-48.695c.018.072.007.127-.026.19-.053.101-.112.063-.165.128-.05.063-.099.276-.079.362-.169.058-.009.227-.015.35-.002.05-.041.105-.045.161-.01.119.017.266.068.37 .097.198.268.413.435.544 .19.148.365.572.608.631 .177.042.384-.104.543-.143 .18-.043.397.01.571-.053 .222-.079.127-.337.288-.45 .104-.074.287-.01.406-.051 .2-.069.339-.263.376-.46 .016-.082.01-.145.039-.221 .039-.103.111-.16.09-.293-.01-.062-.052-.12-.064-.187-.022-.114.002-.224 0-.337-.003-.2.017-.379-.078-.55-.38-.688-1.236-.929-1.975-.789-.18.034-.287.126-.442.207-.17.088-.139.166-.318.224-.081.026-.216.124-.215.224 .001.115.005.051.012.169-.021.011-.021-.005-.03-.025" fill="#fff"></path>
				<path d="m38.797-48.695c.018.072.007.127-.026.19-.053.101-.112.063-.165.128-.05.063-.099.276-.079.362-.169.058-.009.227-.015.35-.002.05-.041.105-.045.161-.01.119.017.266.068.37 .097.198.268.413.435.544 .19.148.365.572.608.631 .177.042.384-.104.543-.143 .18-.043.397.01.571-.053 .222-.079.127-.337.288-.45 .104-.074.287-.01.406-.051 .2-.069.339-.263.376-.46 .016-.082.01-.145.039-.221 .039-.103.111-.16.09-.293-.01-.062-.052-.12-.064-.187-.022-.114.002-.224 0-.337-.003-.2.017-.379-.078-.55-.38-.688-1.236-.929-1.975-.789-.18.034-.287.126-.442.207-.17.088-.139.166-.318.224-.081.026-.216.124-.215.224 .001.115.005.051.012.169-.021.011-.021-.005-.03-.025" fill="#fff"></path>
				<path d="m31.137-48.695c.018.072.007.127-.026.19-.053.101-.112.063-.165.128-.05.063-.099.276-.079.362-.169.058-.009.227-.015.35-.002.05-.041.105-.045.161-.01.119.017.266.068.37 .097.198.268.413.435.544 .19.148.365.572.608.631 .177.042.384-.104.543-.143 .18-.043.397.01.571-.053 .222-.079.127-.337.288-.45 .104-.074.287-.01.406-.051 .2-.069.339-.263.376-.46 .016-.082.01-.145.039-.221 .039-.103.111-.16.09-.293-.01-.062-.052-.12-.064-.187-.022-.114.002-.224 0-.337-.003-.2.017-.379-.078-.55-.38-.688-1.236-.929-1.975-.789-.18.034-.287.126-.442.207-.17.088-.139.166-.318.224-.081.026-.216.124-.215.224 .001.115.005.051.012.169-.021.011-.021-.005-.03-.025" fill="#fff"></path>
				<path d="m23.477-48.695c.018.072.007.127-.026.19-.053.101-.112.063-.165.128-.05.063-.099.276-.079.362-.169.058-.009.227-.015.35-.002.05-.041.105-.045.161-.01.119.017.266.068.37 .097.198.268.413.435.544 .19.148.365.572.608.631 .177.042.384-.104.543-.143 .18-.043.397.01.571-.053 .222-.079.127-.337.288-.45 .104-.074.287-.01.406-.051 .2-.069.339-.263.376-.46 .016-.082.01-.145.039-.221 .039-.103.111-.16.09-.293-.01-.062-.052-.12-.064-.187-.022-.114.002-.224 0-.337-.003-.2.017-.379-.078-.55-.38-.688-1.236-.929-1.975-.789-.18.034-.287.126-.442.207-.17.088-.139.166-.318.224-.081.026-.216.124-.215.224 .001.115.005.051.012.169-.021.011-.021-.005-.03-.025" fill="#fff"></path>
				<path d="m15.816-48.695c.018.072.007.127-.026.19-.053.101-.112.063-.165.128-.05.063-.099.276-.079.362-.169.058-.009.227-.015.35-.002.05-.041.105-.045.161-.01.119.017.266.068.37 .097.198.268.413.435.544 .19.148.365.572.608.631 .177.042.384-.104.543-.143 .18-.043.397.01.571-.053 .222-.079.127-.337.288-.45 .104-.074.287-.01.406-.051 .2-.069.339-.263.376-.46 .016-.082.01-.145.039-.221 .039-.103.111-.16.09-.293-.01-.062-.052-.12-.064-.187-.022-.114.002-.224 0-.337-.003-.2.017-.379-.078-.55-.38-.688-1.236-.929-1.975-.789-.18.034-.287.126-.442.207-.17.088-.139.166-.318.224-.081.026-.216.124-.215.224 .001.115.005.051.012.169-.021.011-.021-.005-.03-.025" fill="#fff"></path>
				<path d="m8.156-48.695c.018.072.007.127-.026.19-.053.101-.112.063-.165.128-.05.063-.099.276-.079.362-.169.058-.009.227-.015.35-.002.05-.041.105-.045.161-.01.119.017.266.068.37 .097.198.268.413.435.544 .19.148.365.572.608.631 .177.042.384-.104.543-.143 .18-.043.397.01.571-.053 .222-.079.127-.337.288-.45 .104-.074.287-.01.406-.051 .2-.069.339-.263.376-.46 .016-.082.01-.145.039-.221 .039-.103.111-.16.09-.293-.01-.062-.052-.12-.064-.187-.022-.114.002-.224 0-.337-.003-.2.017-.379-.078-.55-.38-.688-1.236-.929-1.975-.789-.18.034-.287.126-.442.207-.17.088-.139.166-.318.224-.081.026-.216.124-.215.224 .001.115.005.051.012.169-.021.011-.021-.005-.03-.025" fill="#fff"></path>
				<path d="m.495-48.695c.018.072.007.127-.026.19-.053.101-.112.063-.165.128-.05.063-.099.276-.079.362-.169.058-.01.227-.015.35-.002.05-.041.105-.045.161-.01.119.017.266.068.37 .097.198.268.413.435.544 .19.148.365.572.608.631 .177.042.384-.104.543-.143 .18-.043.397.01.571-.053 .222-.079.127-.337.288-.45 .104-.074.287-.01.406-.051 .2-.069.339-.263.376-.46 .016-.082.01-.145.039-.221 .039-.103.111-.16.09-.293-.01-.062-.052-.12-.064-.187-.022-.114.002-.224 0-.337-.003-.2.017-.379-.078-.55-.38-.688-1.236-.929-1.975-.789-.18.034-.287.126-.442.207-.17.088-.139.166-.318.224-.081.026-.216.124-.215.224 .001.115.005.051.012.169-.021.011-.021-.005-.03-.025" fill="#fff"></path>
			
			
				<path d="m69.439-41.042c.018.072.007.127-.026.19-.053.101-.112.063-.165.128-.05.063-.099.276-.079.362-.169.058-.01.227-.015.35-.002.05-.041.105-.045.161-.01.119.017.266.068.37 .097.198.268.413.435.544 .19.148.365.572.608.631 .177.042.384-.104.543-.143 .18-.043.397.01.571-.053 .222-.079.127-.337.288-.45 .104-.074.287-.01.406-.051 .2-.069.339-.263.376-.46 .016-.082.01-.145.039-.221 .039-.103.111-.16.09-.293-.01-.062-.052-.12-.064-.187-.022-.114.002-.224 0-.337-.003-.2.017-.379-.078-.55-.38-.688-1.236-.929-1.975-.789-.18.034-.287.126-.442.207-.17.088-.139.166-.318.224-.081.026-.216.124-.215.224 .001.115.005.051.012.169-.021.011-.021-.005-.03-.025" fill="#fff"></path>
				<path d="m61.778-41.042c.018.072.007.127-.026.19-.053.101-.112.063-.165.128-.05.063-.099.276-.079.362-.169.058-.009.227-.015.35-.002.05-.041.105-.045.161-.01.119.017.266.068.37 .097.198.268.413.435.544 .19.148.365.572.608.631 .177.042.384-.104.543-.143 .18-.043.397.01.571-.053 .222-.079.127-.337.288-.45 .104-.074.287-.01.406-.051 .2-.069.339-.263.376-.46 .016-.082.01-.145.039-.221 .039-.103.111-.16.09-.293-.01-.062-.052-.12-.064-.187-.022-.114.002-.224 0-.337-.003-.2.017-.379-.078-.55-.38-.688-1.236-.929-1.975-.789-.18.034-.287.126-.442.207-.17.088-.139.166-.318.224-.081.026-.216.124-.215.224 .001.115.005.051.012.169-.021.011-.021-.005-.03-.025" fill="#fff"></path>
				<path d="m54.118-41.042c.018.072.007.127-.026.19-.053.101-.112.063-.165.128-.05.063-.099.276-.079.362-.169.058-.009.227-.015.35-.002.05-.041.105-.045.161-.01.119.017.266.068.37 .097.198.268.413.435.544 .19.148.365.572.608.631 .177.042.384-.104.543-.143 .18-.043.397.01.571-.053 .222-.079.127-.337.288-.45 .104-.074.287-.01.406-.051 .2-.069.339-.263.376-.46 .016-.082.01-.145.039-.221 .039-.103.111-.16.09-.293-.01-.062-.052-.12-.064-.187-.022-.114.002-.224 0-.337-.003-.2.017-.379-.078-.55-.38-.688-1.236-.929-1.975-.789-.18.034-.287.126-.442.207-.17.088-.139.166-.318.224-.081.026-.216.124-.215.224 .001.115.005.051.012.169-.021.011-.021-.005-.03-.025" fill="#fff"></path>
				<path d="m46.458-41.042c.018.072.007.127-.026.19-.053.101-.112.063-.165.128-.05.063-.099.276-.079.362-.169.058-.009.227-.015.35-.002.05-.041.105-.045.161-.01.119.017.266.068.37 .097.198.268.413.435.544 .19.148.365.572.608.631 .177.042.384-.104.543-.143 .18-.043.397.01.571-.053 .222-.079.127-.337.288-.45 .104-.074.287-.01.406-.051 .2-.069.339-.263.376-.46 .016-.082.01-.145.039-.221 .039-.103.111-.16.09-.293-.01-.062-.052-.12-.064-.187-.022-.114.002-.224 0-.337-.003-.2.017-.379-.078-.55-.38-.688-1.236-.929-1.975-.789-.18.034-.287.126-.442.207-.17.088-.139.166-.318.224-.081.026-.216.124-.215.224 .001.115.005.051.012.169-.021.011-.021-.005-.03-.025" fill="#fff"></path>
				<path d="m38.797-41.042c.018.072.007.127-.026.19-.053.101-.112.063-.165.128-.05.063-.099.276-.079.362-.169.058-.009.227-.015.35-.002.05-.041.105-.045.161-.01.119.017.266.068.37 .097.198.268.413.435.544 .19.148.365.572.608.631 .177.042.384-.104.543-.143 .18-.043.397.01.571-.053 .222-.079.127-.337.288-.45 .104-.074.287-.01.406-.051 .2-.069.339-.263.376-.46 .016-.082.01-.145.039-.221 .039-.103.111-.16.09-.293-.01-.062-.052-.12-.064-.187-.022-.114.002-.224 0-.337-.003-.2.017-.379-.078-.55-.38-.688-1.236-.929-1.975-.789-.18.034-.287.126-.442.207-.17.088-.139.166-.318.224-.081.026-.216.124-.215.224 .001.115.005.051.012.169-.021.011-.021-.005-.03-.025" fill="#fff"></path>
				<path d="m31.137-41.042c.018.072.007.127-.026.19-.053.101-.112.063-.165.128-.05.063-.099.276-.079.362-.169.058-.009.227-.015.35-.002.05-.041.105-.045.161-.01.119.017.266.068.37 .097.198.268.413.435.544 .19.148.365.572.608.631 .177.042.384-.104.543-.143 .18-.043.397.01.571-.053 .222-.079.127-.337.288-.45 .104-.074.287-.01.406-.051 .2-.069.339-.263.376-.46 .016-.082.01-.145.039-.221 .039-.103.111-.16.09-.293-.01-.062-.052-.12-.064-.187-.022-.114.002-.224 0-.337-.003-.2.017-.379-.078-.55-.38-.688-1.236-.929-1.975-.789-.18.034-.287.126-.442.207-.17.088-.139.166-.318.224-.081.026-.216.124-.215.224 .001.115.005.051.012.169-.021.011-.021-.005-.03-.025" fill="#fff"></path>
				<path d="m23.477-41.042c.018.072.007.127-.026.19-.053.101-.112.063-.165.128-.05.063-.099.276-.079.362-.169.058-.009.227-.015.35-.002.05-.041.105-.045.161-.01.119.017.266.068.37 .097.198.268.413.435.544 .19.148.365.572.608.631 .177.042.384-.104.543-.143 .18-.043.397.01.571-.053 .222-.079.127-.337.288-.45 .104-.074.287-.01.406-.051 .2-.069.339-.263.376-.46 .016-.082.01-.145.039-.221 .039-.103.111-.16.09-.293-.01-.062-.052-.12-.064-.187-.022-.114.002-.224 0-.337-.003-.2.017-.379-.078-.55-.38-.688-1.236-.929-1.975-.789-.18.034-.287.126-.442.207-.17.088-.139.166-.318.224-.081.026-.216.124-.215.224 .001.115.005.051.012.169-.021.011-.021-.005-.03-.025" fill="#fff"></path>
				<path d="m15.816-41.042c.018.072.007.127-.026.19-.053.101-.112.063-.165.128-.05.063-.099.276-.079.362-.169.058-.009.227-.015.35-.002.05-.041.105-.045.161-.01.119.017.266.068.37 .097.198.268.413.435.544 .19.148.365.572.608.631 .177.042.384-.104.543-.143 .18-.043.397.01.571-.053 .222-.079.127-.337.288-.45 .104-.074.287-.01.406-.051 .2-.069.339-.263.376-.46 .016-.082.01-.145.039-.221 .039-.103.111-.16.09-.293-.01-.062-.052-.12-.064-.187-.022-.114.002-.224 0-.337-.003-.2.017-.379-.078-.55-.38-.688-1.236-.929-1.975-.789-.18.034-.287.126-.442.207-.17.088-.139.166-.318.224-.081.026-.216.124-.215.224 .001.115.005.051.012.169-.021.011-.021-.005-.03-.025" fill="#fff"></path>
				<path d="m8.156-41.042c.018.072.007.127-.026.19-.053.101-.112.063-.165.128-.05.063-.099.276-.079.362-.169.058-.009.227-.015.35-.002.05-.041.105-.045.161-.01.119.017.266.068.37 .097.198.268.413.435.544 .19.148.365.572.608.631 .177.042.384-.104.543-.143 .18-.043.397.01.571-.053 .222-.079.127-.337.288-.45 .104-.074.287-.01.406-.051 .2-.069.339-.263.376-.46 .016-.082.01-.145.039-.221 .039-.103.111-.16.09-.293-.01-.062-.052-.12-.064-.187-.022-.114.002-.224 0-.337-.003-.2.017-.379-.078-.55-.38-.688-1.236-.929-1.975-.789-.18.034-.287.126-.442.207-.17.088-.139.166-.318.224-.081.026-.216.124-.215.224 .001.115.005.051.012.169-.02.012-.021-.004-.03-.024" fill="#fff"></path>
				<path d="m.495-41.042c.018.072.007.127-.026.19-.053.101-.112.063-.165.128-.05.063-.099.276-.079.362-.169.058-.01.227-.015.35-.002.05-.041.105-.045.161-.01.119.017.266.068.37 .097.198.268.413.435.544 .19.148.365.572.608.631 .177.042.384-.104.543-.143 .18-.043.397.01.571-.053 .222-.079.127-.337.288-.45 .104-.074.287-.01.406-.051 .2-.069.339-.263.376-.46 .016-.082.01-.145.039-.221 .039-.103.111-.16.09-.293-.01-.062-.052-.12-.064-.187-.022-.114.002-.224 0-.337-.003-.2.017-.379-.078-.55-.38-.688-1.236-.929-1.975-.789-.18.034-.287.126-.442.207-.17.088-.139.166-.318.224-.081.026-.216.124-.215.224 .001.115.005.051.012.169-.021.011-.021-.005-.03-.025" fill="#fff"></path>
			
			
				<path d="m69.439-33.39c.018.072.007.127-.026.19-.053.101-.112.063-.165.128-.05.063-.099.276-.079.362-.169.058-.01.227-.015.35-.002.05-.041.105-.045.161-.01.119.017.266.068.37 .097.198.268.413.435.544 .19.148.365.572.608.631 .177.042.384-.104.543-.143 .18-.043.397.01.571-.053 .222-.079.127-.337.288-.45 .104-.074.287-.01.406-.051 .2-.069.339-.263.376-.46 .016-.082.01-.145.039-.221 .039-.103.111-.16.09-.293-.01-.062-.052-.12-.064-.187-.022-.114.002-.224 0-.337-.003-.2.017-.379-.078-.55-.38-.688-1.236-.929-1.975-.789-.18.034-.287.126-.442.207-.17.088-.139.166-.318.224-.081.026-.216.124-.215.224 .001.115.005.051.012.169-.021.011-.021-.005-.03-.025" fill="#fff"></path>
				<path d="m61.778-33.39c.018.072.007.127-.026.19-.053.101-.112.063-.165.128-.05.063-.099.276-.079.362-.169.058-.009.227-.015.35-.002.05-.041.105-.045.161-.01.119.017.266.068.37 .097.198.268.413.435.544 .19.148.365.572.608.631 .177.042.384-.104.543-.143 .18-.043.397.01.571-.053 .222-.079.127-.337.288-.45 .104-.074.287-.01.406-.051 .2-.069.339-.263.376-.46 .016-.082.01-.145.039-.221 .039-.103.111-.16.09-.293-.01-.062-.052-.12-.064-.187-.022-.114.002-.224 0-.337-.003-.2.017-.379-.078-.55-.38-.688-1.236-.929-1.975-.789-.18.034-.287.126-.442.207-.17.088-.139.166-.318.224-.081.026-.216.124-.215.224 .001.115.005.051.012.169-.021.011-.021-.005-.03-.025" fill="#fff"></path>
				<path d="m54.118-33.39c.018.072.007.127-.026.19-.053.101-.112.063-.165.128-.05.063-.099.276-.079.362-.169.058-.009.227-.015.35-.002.05-.041.105-.045.161-.01.119.017.266.068.37 .097.198.268.413.435.544 .19.148.365.572.608.631 .177.042.384-.104.543-.143 .18-.043.397.01.571-.053 .222-.079.127-.337.288-.45 .104-.074.287-.01.406-.051 .2-.069.339-.263.376-.46 .016-.082.01-.145.039-.221 .039-.103.111-.16.09-.293-.01-.062-.052-.12-.064-.187-.022-.114.002-.224 0-.337-.003-.2.017-.379-.078-.55-.38-.688-1.236-.929-1.975-.789-.18.034-.287.126-.442.207-.17.088-.139.166-.318.224-.081.026-.216.124-.215.224 .001.115.005.051.012.169-.021.011-.021-.005-.03-.025" fill="#fff"></path>
				<path d="m46.458-33.39c.018.072.007.127-.026.19-.053.101-.112.063-.165.128-.05.063-.099.276-.079.362-.169.058-.009.227-.015.35-.002.05-.041.105-.045.161-.01.119.017.266.068.37 .097.198.268.413.435.544 .19.148.365.572.608.631 .177.042.384-.104.543-.143 .18-.043.397.01.571-.053 .222-.079.127-.337.288-.45 .104-.074.287-.01.406-.051 .2-.069.339-.263.376-.46 .016-.082.01-.145.039-.221 .039-.103.111-.16.09-.293-.01-.062-.052-.12-.064-.187-.022-.114.002-.224 0-.337-.003-.2.017-.379-.078-.55-.38-.688-1.236-.929-1.975-.789-.18.034-.287.126-.442.207-.17.088-.139.166-.318.224-.081.026-.216.124-.215.224 .001.115.005.051.012.169-.021.011-.021-.005-.03-.025" fill="#fff"></path>
				<path d="m38.797-33.39c.018.072.007.127-.026.19-.053.101-.112.063-.165.128-.05.063-.099.276-.079.362-.169.058-.009.227-.015.35-.002.05-.041.105-.045.161-.01.119.017.266.068.37 .097.198.268.413.435.544 .19.148.365.572.608.631 .177.042.384-.104.543-.143 .18-.043.397.01.571-.053 .222-.079.127-.337.288-.45 .104-.074.287-.01.406-.051 .2-.069.339-.263.376-.46 .016-.082.01-.145.039-.221 .039-.103.111-.16.09-.293-.01-.062-.052-.12-.064-.187-.022-.114.002-.224 0-.337-.003-.2.017-.379-.078-.55-.38-.688-1.236-.929-1.975-.789-.18.034-.287.126-.442.207-.17.088-.139.166-.318.224-.081.026-.216.124-.215.224 .001.115.005.051.012.169-.021.011-.021-.005-.03-.025" fill="#fff"></path>
				<path d="m31.137-33.39c.018.072.007.127-.026.19-.053.101-.112.063-.165.128-.05.063-.099.276-.079.362-.169.058-.009.227-.015.35-.002.05-.041.105-.045.161-.01.119.017.266.068.37 .097.198.268.413.435.544 .19.148.365.572.608.631 .177.042.384-.104.543-.143 .18-.043.397.01.571-.053 .222-.079.127-.337.288-.45 .104-.074.287-.01.406-.051 .2-.069.339-.263.376-.46 .016-.082.01-.145.039-.221 .039-.103.111-.16.09-.293-.01-.062-.052-.12-.064-.187-.022-.114.002-.224 0-.337-.003-.2.017-.379-.078-.55-.38-.688-1.236-.929-1.975-.789-.18.034-.287.126-.442.207-.17.088-.139.166-.318.224-.081.026-.216.124-.215.224 .001.115.005.051.012.169-.021.011-.021-.005-.03-.025" fill="#fff"></path>
				<path d="m23.477-33.39c.018.072.007.127-.026.19-.053.101-.112.063-.165.128-.05.063-.099.276-.079.362-.169.058-.009.227-.015.35-.002.05-.041.105-.045.161-.01.119.017.266.068.37 .097.198.268.413.435.544 .19.148.365.572.608.631 .177.042.384-.104.543-.143 .18-.043.397.01.571-.053 .222-.079.127-.337.288-.45 .104-.074.287-.01.406-.051 .2-.069.339-.263.376-.46 .016-.082.01-.145.039-.221 .039-.103.111-.16.09-.293-.01-.062-.052-.12-.064-.187-.022-.114.002-.224 0-.337-.003-.2.017-.379-.078-.55-.38-.688-1.236-.929-1.975-.789-.18.034-.287.126-.442.207-.17.088-.139.166-.318.224-.081.026-.216.124-.215.224 .001.115.005.051.012.169-.021.011-.021-.005-.03-.025" fill="#fff"></path>
				<path d="m15.816-33.39c.018.072.007.127-.026.19-.053.101-.112.063-.165.128-.05.063-.099.276-.079.362-.169.058-.009.227-.015.35-.002.05-.041.105-.045.161-.01.119.017.266.068.37 .097.198.268.413.435.544 .19.148.365.572.608.631 .177.042.384-.104.543-.143 .18-.043.397.01.571-.053 .222-.079.127-.337.288-.45 .104-.074.287-.01.406-.051 .2-.069.339-.263.376-.46 .016-.082.01-.145.039-.221 .039-.103.111-.16.09-.293-.01-.062-.052-.12-.064-.187-.022-.114.002-.224 0-.337-.003-.2.017-.379-.078-.55-.38-.688-1.236-.929-1.975-.789-.18.034-.287.126-.442.207-.17.088-.139.166-.318.224-.081.026-.216.124-.215.224 .001.115.005.051.012.169-.021.011-.021-.005-.03-.025" fill="#fff"></path>
				<path d="m8.156-33.39c.018.072.007.127-.026.19-.053.101-.112.063-.165.128-.05.063-.099.276-.079.362-.169.058-.009.227-.015.35-.002.05-.041.105-.045.161-.01.119.017.266.068.37 .097.198.268.413.435.544 .19.148.365.572.608.631 .177.042.384-.104.543-.143 .18-.043.397.01.571-.053 .222-.079.127-.337.288-.45 .104-.074.287-.01.406-.051 .2-.069.339-.263.376-.46 .016-.082.01-.145.039-.221 .039-.103.111-.16.09-.293-.01-.062-.052-.12-.064-.187-.022-.114.002-.224 0-.337-.003-.2.017-.379-.078-.55-.38-.688-1.236-.929-1.975-.789-.18.034-.287.126-.442.207-.17.088-.139.166-.318.224-.081.026-.216.124-.215.224 .001.115.005.051.012.169-.021.011-.021-.005-.03-.025" fill="#fff"></path>
				<path d="m.495-33.39c.018.072.007.127-.026.19-.053.101-.112.063-.165.128-.05.063-.099.276-.079.362-.169.058-.01.227-.015.35-.002.05-.041.105-.045.161-.01.119.017.266.068.37 .097.198.268.413.435.544 .19.148.365.572.608.631 .177.042.384-.104.543-.143 .18-.043.397.01.571-.053 .222-.079.127-.337.288-.45 .104-.074.287-.01.406-.051 .2-.069.339-.263.376-.46 .016-.082.01-.145.039-.221 .039-.103.111-.16.09-.293-.01-.062-.052-.12-.064-.187-.022-.114.002-.224 0-.337-.003-.2.017-.379-.078-.55-.38-.688-1.236-.929-1.975-.789-.18.034-.287.126-.442.207-.17.088-.139.166-.318.224-.081.026-.216.124-.215.224 .003.117.006.053.013.171-.021.011-.021-.005-.03-.025" fill="#fff"></path>
			
			
				<path d="m69.439-25.736c.018.072.007.127-.026.19-.053.101-.112.063-.165.128-.05.063-.099.276-.079.362-.169.058-.01.227-.015.35-.002.05-.041.105-.045.161-.01.119.017.266.068.37 .097.198.268.413.435.544 .19.148.365.572.608.631 .177.042.384-.104.543-.143 .18-.043.397.01.571-.053 .222-.079.127-.337.288-.45 .104-.074.287-.01.406-.051 .2-.069.339-.263.376-.46 .016-.082.01-.145.039-.221 .039-.103.111-.16.09-.293-.01-.062-.052-.12-.064-.187-.022-.114.002-.224 0-.337-.003-.2.017-.379-.078-.55-.38-.688-1.236-.929-1.975-.789-.18.034-.287.126-.442.207-.17.088-.139.166-.318.224-.081.026-.216.124-.215.224 .001.115.005.051.012.169-.021.011-.021-.005-.03-.025" fill="#fff"></path>
				<path d="m61.778-25.736c.018.072.007.127-.026.19-.053.101-.112.063-.165.128-.05.063-.099.276-.079.362-.169.058-.009.227-.015.35-.002.05-.041.105-.045.161-.01.119.017.266.068.37 .097.198.268.413.435.544 .19.148.365.572.608.631 .177.042.384-.104.543-.143 .18-.043.397.01.571-.053 .222-.079.127-.337.288-.45 .104-.074.287-.01.406-.051 .2-.069.339-.263.376-.46 .016-.082.01-.145.039-.221 .039-.103.111-.16.09-.293-.01-.062-.052-.12-.064-.187-.022-.114.002-.224 0-.337-.003-.2.017-.379-.078-.55-.38-.688-1.236-.929-1.975-.789-.18.034-.287.126-.442.207-.17.088-.139.166-.318.224-.081.026-.216.124-.215.224 .001.115.005.051.012.169-.021.011-.021-.005-.03-.025" fill="#fff"></path>
				<path d="m54.118-25.736c.018.072.007.127-.026.19-.053.101-.112.063-.165.128-.05.063-.099.276-.079.362-.169.058-.009.227-.015.35-.002.05-.041.105-.045.161-.01.119.017.266.068.37 .097.198.268.413.435.544 .19.148.365.572.608.631 .177.042.384-.104.543-.143 .18-.043.397.01.571-.053 .222-.079.127-.337.288-.45 .104-.074.287-.01.406-.051 .2-.069.339-.263.376-.46 .016-.082.01-.145.039-.221 .039-.103.111-.16.09-.293-.01-.062-.052-.12-.064-.187-.022-.114.002-.224 0-.337-.003-.2.017-.379-.078-.55-.38-.688-1.236-.929-1.975-.789-.18.034-.287.126-.442.207-.17.088-.139.166-.318.224-.081.026-.216.124-.215.224 .001.115.005.051.012.169-.021.011-.021-.005-.03-.025" fill="#fff"></path>
				<path d="m46.458-25.736c.018.072.007.127-.026.19-.053.101-.112.063-.165.128-.05.063-.099.276-.079.362-.169.058-.009.227-.015.35-.002.05-.041.105-.045.161-.01.119.017.266.068.37 .097.198.268.413.435.544 .19.148.365.572.608.631 .177.042.384-.104.543-.143 .18-.043.397.01.571-.053 .222-.079.127-.337.288-.45 .104-.074.287-.01.406-.051 .2-.069.339-.263.376-.46 .016-.082.01-.145.039-.221 .039-.103.111-.16.09-.293-.01-.062-.052-.12-.064-.187-.022-.114.002-.224 0-.337-.003-.2.017-.379-.078-.55-.38-.688-1.236-.929-1.975-.789-.18.034-.287.126-.442.207-.17.088-.139.166-.318.224-.081.026-.216.124-.215.224 .001.115.005.051.012.169-.021.011-.021-.005-.03-.025" fill="#fff"></path>
				<path d="m38.797-25.736c.018.072.007.127-.026.19-.053.101-.112.063-.165.128-.05.063-.099.276-.079.362-.169.058-.009.227-.015.35-.002.05-.041.105-.045.161-.01.119.017.266.068.37 .097.198.268.413.435.544 .19.148.365.572.608.631 .177.042.384-.104.543-.143 .18-.043.397.01.571-.053 .222-.079.127-.337.288-.45 .104-.074.287-.01.406-.051 .2-.069.339-.263.376-.46 .016-.082.01-.145.039-.221 .039-.103.111-.16.09-.293-.01-.062-.052-.12-.064-.187-.022-.114.002-.224 0-.337-.003-.2.017-.379-.078-.55-.38-.688-1.236-.929-1.975-.789-.18.034-.287.126-.442.207-.17.088-.139.166-.318.224-.081.026-.216.124-.215.224 .001.115.005.051.012.169-.021.011-.021-.005-.03-.025" fill="#fff"></path>
				<path d="m31.137-25.736c.018.072.007.127-.026.19-.053.101-.112.063-.165.128-.05.063-.099.276-.079.362-.169.058-.009.227-.015.35-.002.05-.041.105-.045.161-.01.119.017.266.068.37 .097.198.268.413.435.544 .19.148.365.572.608.631 .177.042.384-.104.543-.143 .18-.043.397.01.571-.053 .222-.079.127-.337.288-.45 .104-.074.287-.01.406-.051 .2-.069.339-.263.376-.46 .016-.082.01-.145.039-.221 .039-.103.111-.16.09-.293-.01-.062-.052-.12-.064-.187-.022-.114.002-.224 0-.337-.003-.2.017-.379-.078-.55-.38-.688-1.236-.929-1.975-.789-.18.034-.287.126-.442.207-.17.088-.139.166-.318.224-.081.026-.216.124-.215.224 .001.115.005.051.012.169-.021.011-.021-.005-.03-.025" fill="#fff"></path>
				<path d="m23.477-25.736c.018.072.007.127-.026.19-.053.101-.112.063-.165.128-.05.063-.099.276-.079.362-.169.058-.009.227-.015.35-.002.05-.041.105-.045.161-.01.119.017.266.068.37 .097.198.268.413.435.544 .19.148.365.572.608.631 .177.042.384-.104.543-.143 .18-.043.397.01.571-.053 .222-.079.127-.337.288-.45 .104-.074.287-.01.406-.051 .2-.069.339-.263.376-.46 .016-.082.01-.145.039-.221 .039-.103.111-.16.09-.293-.01-.062-.052-.12-.064-.187-.022-.114.002-.224 0-.337-.003-.2.017-.379-.078-.55-.38-.688-1.236-.929-1.975-.789-.18.034-.287.126-.442.207-.17.088-.139.166-.318.224-.081.026-.216.124-.215.224 .001.115.005.051.012.169-.021.011-.021-.005-.03-.025" fill="#fff"></path>
				<path d="m15.816-25.736c.018.072.007.127-.026.19-.053.101-.112.063-.165.128-.05.063-.099.276-.079.362-.169.058-.009.227-.015.35-.002.05-.041.105-.045.161-.01.119.017.266.068.37 .097.198.268.413.435.544 .19.148.365.572.608.631 .177.042.384-.104.543-.143 .18-.043.397.01.571-.053 .222-.079.127-.337.288-.45 .104-.074.287-.01.406-.051 .2-.069.339-.263.376-.46 .016-.082.01-.145.039-.221 .039-.103.111-.16.09-.293-.01-.062-.052-.12-.064-.187-.022-.114.002-.224 0-.337-.003-.2.017-.379-.078-.55-.38-.688-1.236-.929-1.975-.789-.18.034-.287.126-.442.207-.17.088-.139.166-.318.224-.081.026-.216.124-.215.224 .001.115.005.051.012.169-.021.011-.021-.005-.03-.025" fill="#fff"></path>
				<path d="m8.156-25.736c.018.072.007.127-.026.19-.053.101-.112.063-.165.128-.05.063-.099.276-.079.362-.169.058-.009.227-.015.35-.002.05-.041.105-.045.161-.01.119.017.266.068.37 .097.198.268.413.435.544 .19.148.365.572.608.631 .177.042.384-.104.543-.143 .18-.043.397.01.571-.053 .222-.079.127-.337.288-.45 .104-.074.287-.01.406-.051 .2-.069.339-.263.376-.46 .016-.082.01-.145.039-.221 .039-.103.111-.16.09-.293-.01-.062-.052-.12-.064-.187-.022-.114.002-.224 0-.337-.003-.2.017-.379-.078-.55-.38-.688-1.236-.929-1.975-.789-.18.034-.287.126-.442.207-.17.088-.139.166-.318.224-.081.026-.216.124-.215.224 .001.115.005.051.012.169-.021.011-.021-.005-.03-.025" fill="#fff"></path>
				<path d="m.495-25.736c.018.072.007.127-.026.19-.053.101-.112.063-.165.128-.05.063-.099.276-.079.362-.169.058-.01.227-.015.35-.002.05-.041.105-.045.161-.01.119.017.266.068.37 .097.198.268.413.435.544 .19.148.365.572.608.631 .177.042.384-.104.543-.143 .18-.043.397.01.571-.053 .222-.079.127-.337.288-.45 .104-.074.287-.01.406-.051 .2-.069.339-.263.376-.46 .016-.082.01-.145.039-.221 .039-.103.111-.16.09-.293-.01-.062-.052-.12-.064-.187-.022-.114.002-.224 0-.337-.003-.2.017-.379-.078-.55-.38-.688-1.236-.929-1.975-.789-.18.034-.287.126-.442.207-.17.088-.139.166-.318.224-.081.026-.216.124-.215.224 .001.115.005.051.012.169-.021.011-.021-.005-.03-.025" fill="#fff"></path>
			
			
				<path d="m69.439-18.084c.018.072.007.127-.026.19-.053.101-.112.063-.165.128-.05.063-.099.276-.079.362-.169.058-.01.227-.015.35-.002.05-.041.105-.045.161-.01.119.017.266.068.37 .097.198.268.413.435.544 .19.148.365.572.608.631 .177.042.384-.104.543-.143 .18-.043.397.01.571-.053 .222-.079.127-.337.288-.45 .104-.074.287-.01.406-.051 .2-.069.339-.263.376-.46 .016-.082.01-.145.039-.221 .039-.103.111-.16.09-.293-.01-.062-.052-.12-.064-.187-.022-.114.002-.224 0-.337-.003-.2.017-.379-.078-.55-.38-.688-1.236-.929-1.975-.789-.18.034-.287.126-.442.207-.17.088-.139.166-.318.224-.081.026-.216.124-.215.224 .001.115.005.051.012.169-.021.011-.021-.005-.03-.025" fill="#fff"></path>
				<path d="m61.778-18.084c.018.072.007.127-.026.19-.053.101-.112.063-.165.128-.05.063-.099.276-.079.362-.169.058-.009.227-.015.35-.002.05-.041.105-.045.161-.01.119.017.266.068.37 .097.198.268.413.435.544 .19.148.365.572.608.631 .177.042.384-.104.543-.143 .18-.043.397.01.571-.053 .222-.079.127-.337.288-.45 .104-.074.287-.01.406-.051 .2-.069.339-.263.376-.46 .016-.082.01-.145.039-.221 .039-.103.111-.16.09-.293-.01-.062-.052-.12-.064-.187-.022-.114.002-.224 0-.337-.003-.2.017-.379-.078-.55-.38-.688-1.236-.929-1.975-.789-.18.034-.287.126-.442.207-.17.088-.139.166-.318.224-.081.026-.216.124-.215.224 .001.115.005.051.012.169-.021.011-.021-.005-.03-.025" fill="#fff"></path>
				<path d="m54.118-18.084c.018.072.007.127-.026.19-.053.101-.112.063-.165.128-.05.063-.099.276-.079.362-.169.058-.009.227-.015.35-.002.05-.041.105-.045.161-.01.119.017.266.068.37 .097.198.268.413.435.544 .19.148.365.572.608.631 .177.042.384-.104.543-.143 .18-.043.397.01.571-.053 .222-.079.127-.337.288-.45 .104-.074.287-.01.406-.051 .2-.069.339-.263.376-.46 .016-.082.01-.145.039-.221 .039-.103.111-.16.09-.293-.01-.062-.052-.12-.064-.187-.022-.114.002-.224 0-.337-.003-.2.017-.379-.078-.55-.38-.688-1.236-.929-1.975-.789-.18.034-.287.126-.442.207-.17.088-.139.166-.318.224-.081.026-.216.124-.215.224 .001.115.005.051.012.169-.021.011-.021-.005-.03-.025" fill="#fff"></path>
				<path d="m46.458-18.084c.018.072.007.127-.026.19-.053.101-.112.063-.165.128-.05.063-.099.276-.079.362-.169.058-.009.227-.015.35-.002.05-.041.105-.045.161-.01.119.017.266.068.37 .097.198.268.413.435.544 .19.148.365.572.608.631 .177.042.384-.104.543-.143 .18-.043.397.01.571-.053 .222-.079.127-.337.288-.45 .104-.074.287-.01.406-.051 .2-.069.339-.263.376-.46 .016-.082.01-.145.039-.221 .039-.103.111-.16.09-.293-.01-.062-.052-.12-.064-.187-.022-.114.002-.224 0-.337-.003-.2.017-.379-.078-.55-.38-.688-1.236-.929-1.975-.789-.18.034-.287.126-.442.207-.17.088-.139.166-.318.224-.081.026-.216.124-.215.224 .001.115.005.051.012.169-.021.011-.021-.005-.03-.025" fill="#fff"></path>
				<path d="m38.797-18.084c.018.072.007.127-.026.19-.053.101-.112.063-.165.128-.05.063-.099.276-.079.362-.169.058-.009.227-.015.35-.002.05-.041.105-.045.161-.01.119.017.266.068.37 .097.198.268.413.435.544 .19.148.365.572.608.631 .177.042.384-.104.543-.143 .18-.043.397.01.571-.053 .222-.079.127-.337.288-.45 .104-.074.287-.01.406-.051 .2-.069.339-.263.376-.46 .016-.082.01-.145.039-.221 .039-.103.111-.16.09-.293-.01-.062-.052-.12-.064-.187-.022-.114.002-.224 0-.337-.003-.2.017-.379-.078-.55-.38-.688-1.236-.929-1.975-.789-.18.034-.287.126-.442.207-.17.088-.139.166-.318.224-.081.026-.216.124-.215.224 .001.115.005.051.012.169-.021.011-.021-.005-.03-.025" fill="#fff"></path>
				<path d="m31.137-18.084c.018.072.007.127-.026.19-.053.101-.112.063-.165.128-.05.063-.099.276-.079.362-.169.058-.009.227-.015.35-.002.05-.041.105-.045.161-.01.119.017.266.068.37 .097.198.268.413.435.544 .19.148.365.572.608.631 .177.042.384-.104.543-.143 .18-.043.397.01.571-.053 .222-.079.127-.337.288-.45 .104-.074.287-.01.406-.051 .2-.069.339-.263.376-.46 .016-.082.01-.145.039-.221 .039-.103.111-.16.09-.293-.01-.062-.052-.12-.064-.187-.022-.114.002-.224 0-.337-.003-.2.017-.379-.078-.55-.38-.688-1.236-.929-1.975-.789-.18.034-.287.126-.442.207-.17.088-.139.166-.318.224-.081.026-.216.124-.215.224 .001.115.005.051.012.169-.021.011-.021-.005-.03-.025" fill="#fff"></path>
				<path d="m23.477-18.084c.018.072.007.127-.026.19-.053.101-.112.063-.165.128-.05.063-.099.276-.079.362-.169.058-.009.227-.015.35-.002.05-.041.105-.045.161-.01.119.017.266.068.37 .097.198.268.413.435.544 .19.148.365.572.608.631 .177.042.384-.104.543-.143 .18-.043.397.01.571-.053 .222-.079.127-.337.288-.45 .104-.074.287-.01.406-.051 .2-.069.339-.263.376-.46 .016-.082.01-.145.039-.221 .039-.103.111-.16.09-.293-.01-.062-.052-.12-.064-.187-.022-.114.002-.224 0-.337-.003-.2.017-.379-.078-.55-.38-.688-1.236-.929-1.975-.789-.18.034-.287.126-.442.207-.17.088-.139.166-.318.224-.081.026-.216.124-.215.224 .001.115.005.051.012.169-.021.011-.021-.005-.03-.025" fill="#fff"></path>
				<path d="m15.816-18.084c.018.072.007.127-.026.19-.053.101-.112.063-.165.128-.05.063-.099.276-.079.362-.169.058-.009.227-.015.35-.002.05-.041.105-.045.161-.01.119.017.266.068.37 .097.198.268.413.435.544 .19.148.365.572.608.631 .177.042.384-.104.543-.143 .18-.043.397.01.571-.053 .222-.079.127-.337.288-.45 .104-.074.287-.01.406-.051 .2-.069.339-.263.376-.46 .016-.082.01-.145.039-.221 .039-.103.111-.16.09-.293-.01-.062-.052-.12-.064-.187-.022-.114.002-.224 0-.337-.003-.2.017-.379-.078-.55-.38-.688-1.236-.929-1.975-.789-.18.034-.287.126-.442.207-.17.088-.139.166-.318.224-.081.026-.216.124-.215.224 .001.115.005.051.012.169-.021.011-.021-.005-.03-.025" fill="#fff"></path>
				<path d="m8.156-18.084c.018.072.007.127-.026.19-.053.101-.112.063-.165.128-.05.063-.099.276-.079.362-.169.058-.009.227-.015.35-.002.05-.041.105-.045.161-.01.119.017.266.068.37 .097.198.268.413.435.544 .19.148.365.572.608.631 .177.042.384-.104.543-.143 .18-.043.397.01.571-.053 .222-.079.127-.337.288-.45 .104-.074.287-.01.406-.051 .2-.069.339-.263.376-.46 .016-.082.01-.145.039-.221 .039-.103.111-.16.09-.293-.01-.062-.052-.12-.064-.187-.022-.114.002-.224 0-.337-.003-.2.017-.379-.078-.55-.38-.688-1.236-.929-1.975-.789-.18.034-.287.126-.442.207-.17.088-.139.166-.318.224-.081.026-.216.124-.215.224 .001.115.005.051.012.169-.021.011-.021-.005-.03-.025" fill="#fff"></path>
				<path d="m.495-18.084c.018.072.007.127-.026.19-.053.101-.112.063-.165.128-.05.063-.099.276-.079.362-.169.058-.01.227-.015.35-.002.05-.041.105-.045.161-.01.119.017.266.068.37 .097.198.268.413.435.544 .19.148.365.572.608.631 .177.042.384-.104.543-.143 .18-.043.397.01.571-.053 .222-.079.127-.337.288-.45 .104-.074.287-.01.406-.051 .2-.069.339-.263.376-.46 .016-.082.01-.145.039-.221 .039-.103.111-.16.09-.293-.01-.062-.052-.12-.064-.187-.022-.114.002-.224 0-.337-.003-.2.017-.379-.078-.55-.38-.688-1.236-.929-1.975-.789-.18.034-.287.126-.442.207-.17.088-.139.166-.318.224-.081.026-.216.124-.215.224 .003.117.006.052.013.17-.021.011-.021-.005-.03-.025" fill="#fff"></path>
			
			
				<path d="m69.439-10.431c.018.072.007.127-.026.19-.053.101-.112.063-.165.128-.05.063-.099.276-.079.362-.169.059-.01.228-.015.351-.002.05-.041.105-.045.161-.01.119.017.266.068.37 .097.198.268.413.435.544 .19.148.365.572.608.631 .177.042.384-.104.543-.143 .18-.043.397.01.571-.053 .222-.079.127-.337.288-.45 .104-.074.287-.01.406-.051 .2-.069.339-.263.376-.46 .016-.082.01-.145.039-.221 .039-.103.111-.16.09-.293-.01-.062-.052-.12-.064-.187-.022-.114.002-.224 0-.337-.003-.2.017-.379-.078-.55-.38-.688-1.236-.929-1.975-.789-.18.034-.287.126-.442.207-.17.088-.139.166-.318.224-.081.026-.216.124-.215.224 .001.115.005.051.012.169-.021.011-.021-.005-.03-.025" fill="#fff"></path>
				<path d="m61.778-10.431c.018.072.007.127-.026.19-.053.101-.112.063-.165.128-.05.063-.099.276-.079.362-.169.058-.009.227-.015.35-.002.05-.041.105-.045.161-.01.119.017.266.068.37 .097.198.268.413.435.544 .19.148.365.572.608.631 .177.042.384-.104.543-.143 .18-.043.397.01.571-.053 .222-.079.127-.337.288-.45 .104-.074.287-.01.406-.051 .2-.069.339-.263.376-.46 .016-.082.01-.145.039-.221 .039-.103.111-.16.09-.293-.01-.062-.052-.12-.064-.187-.022-.114.002-.224 0-.337-.003-.2.017-.379-.078-.55-.38-.688-1.236-.929-1.975-.789-.18.034-.287.126-.442.207-.17.088-.139.166-.318.224-.081.026-.216.124-.215.224 .001.115.005.051.012.169-.021.011-.021-.005-.03-.025" fill="#fff"></path>
				<path d="m54.118-10.431c.018.072.007.127-.026.19-.053.101-.112.063-.165.128-.05.063-.099.276-.079.362-.169.058-.009.227-.015.35-.002.05-.041.105-.045.161-.01.119.017.266.068.37 .097.198.268.413.435.544 .19.148.365.572.608.631 .177.042.384-.104.543-.143 .18-.043.397.01.571-.053 .222-.079.127-.337.288-.45 .104-.074.287-.01.406-.051 .2-.069.339-.263.376-.46 .016-.082.01-.145.039-.221 .039-.103.111-.16.09-.293-.01-.062-.052-.12-.064-.187-.022-.114.002-.224 0-.337-.003-.2.017-.379-.078-.55-.38-.688-1.236-.929-1.975-.789-.18.034-.287.126-.442.207-.17.088-.139.166-.318.224-.081.026-.216.124-.215.224 .001.115.005.051.012.169-.021.011-.021-.005-.03-.025" fill="#fff"></path>
				<path d="m46.458-10.431c.018.072.007.127-.026.19-.053.101-.112.063-.165.128-.05.063-.099.276-.079.362-.169.058-.009.227-.015.35-.002.05-.041.105-.045.161-.01.119.017.266.068.37 .097.198.268.413.435.544 .19.148.365.572.608.631 .177.042.384-.104.543-.143 .18-.043.397.01.571-.053 .222-.079.127-.337.288-.45 .104-.074.287-.01.406-.051 .2-.069.339-.263.376-.46 .016-.082.01-.145.039-.221 .039-.103.111-.16.09-.293-.01-.062-.052-.12-.064-.187-.022-.114.002-.224 0-.337-.003-.2.017-.379-.078-.55-.38-.688-1.236-.929-1.975-.789-.18.034-.287.126-.442.207-.17.088-.139.166-.318.224-.081.026-.216.124-.215.224 .001.115.005.051.012.169-.021.011-.021-.005-.03-.025" fill="#fff"></path>
				<path d="m38.797-10.431c.018.072.007.127-.026.19-.053.101-.112.063-.165.128-.05.063-.099.276-.079.362-.169.058-.009.227-.015.35-.002.05-.041.105-.045.161-.01.119.017.266.068.37 .097.198.268.413.435.544 .19.148.365.572.608.631 .177.042.384-.104.543-.143 .18-.043.397.01.571-.053 .222-.079.127-.337.288-.45 .104-.074.287-.01.406-.051 .2-.069.339-.263.376-.46 .016-.082.01-.145.039-.221 .039-.103.111-.16.09-.293-.01-.062-.052-.12-.064-.187-.022-.114.002-.224 0-.337-.003-.2.017-.379-.078-.55-.38-.688-1.236-.929-1.975-.789-.18.034-.287.126-.442.207-.17.088-.139.166-.318.224-.081.026-.216.124-.215.224 .001.115.005.051.012.169-.021.011-.021-.005-.03-.025" fill="#fff"></path>
				<path d="m31.137-10.431c.018.072.007.127-.026.19-.053.101-.112.063-.165.128-.05.063-.099.276-.079.362-.169.058-.009.227-.015.35-.002.05-.041.105-.045.161-.01.119.017.266.068.37 .097.198.268.413.435.544 .19.148.365.572.608.631 .177.042.384-.104.543-.143 .18-.043.397.01.571-.053 .222-.079.127-.337.288-.45 .104-.074.287-.01.406-.051 .2-.069.339-.263.376-.46 .016-.082.01-.145.039-.221 .039-.103.111-.16.09-.293-.01-.062-.052-.12-.064-.187-.022-.114.002-.224 0-.337-.003-.2.017-.379-.078-.55-.38-.688-1.236-.929-1.975-.789-.18.034-.287.126-.442.207-.17.088-.139.166-.318.224-.081.026-.216.124-.215.224 .001.115.005.051.012.169-.021.011-.021-.005-.03-.025" fill="#fff"></path>
				<path d="m23.477-10.431c.018.072.007.127-.026.19-.053.101-.112.063-.165.128-.05.063-.099.276-.079.362-.169.058-.009.227-.015.35-.002.05-.041.105-.045.161-.01.119.017.266.068.37 .097.198.268.413.435.544 .19.148.365.572.608.631 .177.042.384-.104.543-.143 .18-.043.397.01.571-.053 .222-.079.127-.337.288-.45 .104-.074.287-.01.406-.051 .2-.069.339-.263.376-.46 .016-.082.01-.145.039-.221 .039-.103.111-.16.09-.293-.01-.062-.052-.12-.064-.187-.022-.114.002-.224 0-.337-.003-.2.017-.379-.078-.55-.38-.688-1.236-.929-1.975-.789-.18.034-.287.126-.442.207-.17.088-.139.166-.318.224-.081.026-.216.124-.215.224 .001.115.005.051.012.169-.021.011-.021-.005-.03-.025" fill="#fff"></path>
				<path d="m15.816-10.431c.018.072.007.127-.026.19-.053.101-.112.063-.165.128-.05.063-.099.276-.079.362-.169.058-.009.227-.015.35-.002.05-.041.105-.045.161-.01.119.017.266.068.37 .097.198.268.413.435.544 .19.148.365.572.608.631 .177.042.384-.104.543-.143 .18-.043.397.01.571-.053 .222-.078.128-.336.289-.449 .104-.074.287-.01.406-.051 .2-.069.339-.263.376-.46 .016-.082.01-.145.039-.221 .039-.103.111-.16.09-.293-.01-.062-.052-.12-.064-.187-.022-.114.002-.224 0-.337-.003-.2.017-.379-.078-.55-.38-.688-1.236-.929-1.975-.789-.18.034-.287.126-.442.207-.17.088-.139.166-.318.224-.081.026-.216.124-.215.224 .001.115.005.051.012.169-.021.011-.021-.005-.03-.025" fill="#fff"></path>
				<path d="m8.156-10.431c.018.072.007.127-.026.19-.053.101-.112.063-.165.128-.05.063-.099.277-.079.363-.169.058-.01.227-.015.35-.003.049-.041.105-.045.161-.01.119.017.266.068.37 .097.198.268.413.435.544 .19.148.365.572.608.631 .177.042.384-.105.543-.143 .18-.043.397.01.571-.053 .222-.079.127-.337.288-.45 .104-.074.287-.01.406-.051 .2-.069.339-.263.376-.46 .016-.082.01-.145.039-.221 .039-.103.111-.16.09-.293-.01-.062-.052-.12-.064-.187-.022-.114.002-.224 0-.337-.003-.2.017-.379-.078-.55-.38-.688-1.236-.929-1.975-.789-.18.034-.287.126-.442.207-.17.088-.139.166-.318.224-.081.026-.216.124-.215.224 .001.115.005.051.012.169-.021.011-.021-.005-.03-.025" fill="#fff"></path>
				<path d="m.495-10.431c.018.072.007.127-.026.19-.053.101-.112.063-.165.128-.05.063-.099.277-.079.363-.169.058-.01.227-.015.35-.002.05-.041.105-.045.161-.01.119.017.266.068.37 .097.198.268.413.435.544 .19.148.365.572.608.631 .178.042.384-.105.543-.143 .181-.043.398.01.572-.053 .222-.079.127-.337.288-.45 .104-.074.287-.01.406-.051 .2-.069.339-.263.376-.46 .016-.082.01-.144.039-.22 .039-.103.111-.16.09-.293-.01-.062-.052-.12-.064-.187-.022-.114.002-.224 0-.337-.003-.2.017-.379-.078-.55-.38-.688-1.236-.929-1.975-.789-.18.034-.287.126-.442.207-.17.088-.139.166-.318.224-.081.026-.216.124-.215.224 .001.115.005.051.012.169-.021.011-.021-.005-.03-.025" fill="#fff"></path>
			
		
		
			<path d="m69.439-2.778c.018.072.008.127-.026.19-.052.101-.113.063-.165.128-.051.063-.099.276-.079.362-.169.058-.01.227-.015.35-.002.05-.041.105-.045.161-.01.119.017.266.068.37 .097.198.268.413.435.544 .19.148.365.572.608.631 .177.042.384-.104.543-.143 .18-.043.397.01.571-.053 .222-.079.127-.337.288-.45 .104-.074.287-.01.406-.051 .2-.07.339-.263.376-.46 .016-.082.01-.145.039-.221 .038-.103.111-.16.09-.293-.01-.062-.051-.12-.064-.187-.021-.114.002-.224 0-.337-.003-.2.017-.379-.078-.55-.38-.688-1.236-.929-1.975-.789-.18.034-.287.126-.442.207-.17.088-.139.166-.318.224-.081.026-.215.124-.215.224 .002.115.005.051.012.169-.021.011-.021-.005-.03-.025" fill="#fff"></path>
			<path d="m61.778-2.778c.018.072.007.127-.026.19-.052.101-.112.063-.165.128-.05.063-.099.276-.079.362-.169.058-.01.227-.015.35-.002.05-.041.105-.045.161-.01.119.017.266.068.37 .097.198.268.413.435.544 .19.148.365.572.608.631 .178.042.384-.104.544-.143 .18-.043.397.01.571-.053 .222-.079.127-.337.288-.45 .104-.074.287-.01.406-.051 .2-.069.339-.263.376-.46 .016-.082.01-.145.039-.221 .039-.103.111-.16.09-.293-.01-.062-.052-.12-.064-.187-.022-.114.002-.224 0-.337-.003-.2.017-.379-.078-.55-.38-.688-1.236-.929-1.975-.789-.18.034-.287.126-.442.207-.17.088-.139.166-.318.224-.081.028-.216.125-.215.225 .001.115.005.051.012.169-.021.011-.021-.005-.03-.025" fill="#fff"></path>
			<path d="m54.118-2.778c.018.072.007.127-.026.19-.052.101-.112.063-.165.128-.05.063-.099.276-.079.362-.169.058-.01.227-.015.35-.002.05-.041.105-.045.161-.01.119.017.266.068.37 .097.198.268.413.435.544 .19.148.365.572.608.631 .178.042.384-.104.543-.143 .18-.043.397.01.571-.053 .222-.079.127-.337.288-.45 .104-.074.287-.01.406-.051 .2-.069.339-.263.376-.46 .016-.082.01-.145.039-.221 .039-.103.111-.16.09-.293-.01-.062-.052-.12-.064-.187-.022-.114.002-.224 0-.337-.003-.2.017-.379-.078-.55-.38-.688-1.236-.929-1.975-.789-.18.034-.287.126-.442.207-.17.088-.139.166-.318.224-.08.028-.215.125-.214.225 .001.115.005.051.012.169-.021.011-.021-.005-.03-.025" fill="#fff"></path>
			<path d="m46.458-2.778c.018.072.007.127-.026.19-.053.101-.112.063-.165.128-.05.063-.099.276-.079.362-.169.058-.01.227-.015.35-.002.05-.041.105-.045.161-.01.119.017.266.068.37 .097.198.268.413.435.544 .19.148.365.572.608.631 .177.042.384-.104.543-.143 .18-.043.397.01.571-.053 .222-.079.127-.337.288-.45 .104-.074.287-.01.406-.051 .2-.069.339-.263.376-.46 .016-.082.01-.145.039-.221 .039-.103.111-.16.09-.293-.01-.062-.052-.12-.064-.187-.022-.114.002-.224 0-.337-.003-.2.017-.379-.078-.55-.38-.688-1.236-.929-1.975-.789-.18.034-.287.126-.442.207-.17.088-.139.166-.318.224-.081.028-.216.125-.215.225 .001.115.005.051.012.169-.021.011-.021-.005-.03-.025" fill="#fff"></path>
			<path d="m38.797-2.778c.018.072.007.127-.026.19-.053.101-.112.063-.165.128-.05.063-.099.276-.079.362-.169.058-.01.227-.015.35-.002.05-.041.105-.045.161-.01.119.017.266.068.37 .097.198.268.413.435.544 .19.148.365.572.608.631 .178.042.384-.104.544-.143 .18-.043.397.01.571-.053 .222-.079.127-.337.288-.45 .104-.074.287-.01.406-.051 .2-.069.339-.263.376-.46 .016-.082.01-.145.039-.221 .039-.103.111-.16.09-.293-.01-.062-.052-.12-.064-.187-.022-.114.002-.224 0-.337-.003-.2.017-.379-.078-.55-.38-.688-1.236-.929-1.975-.789-.18.034-.287.126-.442.207-.17.088-.139.166-.318.224-.081.028-.216.125-.215.225 .001.115.005.051.012.169-.021.011-.021-.005-.03-.025" fill="#fff"></path>
			<path d="m31.137-2.778c.018.072.007.127-.026.19-.053.101-.112.063-.165.128-.05.063-.099.276-.079.362-.169.058-.01.227-.015.35-.002.05-.041.105-.045.161-.01.119.017.266.068.37 .097.198.268.413.435.544 .19.148.365.572.608.631 .177.042.384-.104.543-.143 .18-.043.397.01.571-.053 .222-.079.127-.337.288-.45 .104-.074.287-.01.406-.051 .2-.069.339-.263.376-.46 .016-.082.01-.145.039-.221 .039-.103.111-.16.09-.293-.01-.062-.052-.12-.064-.187-.022-.114.002-.224 0-.337-.003-.2.017-.379-.078-.55-.38-.688-1.236-.929-1.975-.789-.18.034-.287.126-.442.207-.17.088-.139.166-.318.224-.081.028-.215.125-.214.225 .001.115.005.051.012.169-.021.011-.021-.005-.03-.025" fill="#fff"></path>
			<path d="m23.477-2.778c.018.072.007.127-.026.19-.053.101-.112.063-.165.128-.05.063-.099.276-.079.362-.169.058-.01.227-.015.35-.002.05-.041.105-.045.161-.01.119.017.266.068.37 .097.198.268.413.435.544 .19.148.365.572.608.631 .177.042.384-.104.543-.143 .18-.043.397.01.571-.053 .222-.079.127-.337.288-.45 .104-.074.287-.01.406-.051 .2-.069.339-.263.376-.46 .016-.082.01-.145.039-.221 .039-.103.111-.16.09-.293-.01-.062-.052-.12-.064-.187-.022-.114.002-.224 0-.337-.003-.2.017-.379-.078-.55-.38-.688-1.236-.929-1.975-.789-.18.034-.287.126-.442.207-.17.088-.139.166-.318.224-.081.026-.216.124-.215.224 .001.115.005.051.012.169-.021.011-.021-.005-.03-.025" fill="#fff"></path>
			<path d="m15.816-2.778c.018.072.007.127-.026.19-.053.101-.112.063-.165.128-.05.063-.099.276-.079.362-.169.058-.01.227-.015.35-.002.05-.041.105-.045.161-.01.119.017.266.068.37 .097.198.268.413.435.544 .19.148.365.572.608.631 .177.042.384-.104.543-.143 .18-.043.397.01.571-.053 .222-.079.127-.337.288-.45 .104-.074.287-.01.406-.051 .2-.069.339-.263.376-.46 .016-.082.01-.145.039-.221 .039-.103.111-.16.09-.293-.01-.062-.052-.12-.064-.187-.022-.114.002-.224 0-.337-.003-.2.017-.379-.078-.55-.38-.688-1.236-.929-1.975-.789-.18.034-.287.126-.442.207-.17.088-.139.166-.318.224-.081.026-.216.124-.215.224 .001.115.005.051.012.169-.02.012-.021-.004-.03-.024" fill="#fff"></path>
			<path d="m8.156-2.778c.018.072.007.127-.026.19-.053.101-.112.063-.165.128-.05.063-.099.276-.079.362-.169.058-.01.227-.015.35-.003.05-.041.105-.045.161-.01.119.017.266.068.37 .097.198.268.413.435.544 .19.148.365.572.608.631 .177.042.384-.104.543-.143 .18-.043.397.01.571-.053 .222-.079.127-.337.288-.45 .104-.074.287-.01.406-.051 .2-.069.339-.263.376-.46 .016-.082.01-.145.039-.221 .039-.103.111-.16.09-.293-.01-.062-.052-.12-.064-.187-.022-.114.002-.224 0-.337-.003-.2.017-.379-.078-.55-.38-.688-1.236-.929-1.975-.789-.179.036-.286.128-.441.209-.17.088-.139.166-.318.224-.082.026-.216.123-.215.223 .001.115.005.051.011.169-.02.011-.021-.005-.03-.025" fill="#fff"></path>
			<path d="m.495-2.778c.018.072.008.127-.026.19-.052.101-.113.063-.165.128-.051.063-.099.276-.079.362-.169.058-.01.227-.015.35-.002.05-.041.105-.045.161-.01.119.017.266.068.37 .097.198.268.413.435.544 .19.148.365.572.608.631 .178.042.384-.104.543-.143 .181-.043.398.01.572-.052 .222-.079.127-.337.288-.45 .104-.074.287-.01.406-.051 .2-.07.339-.263.376-.46 .016-.082.01-.145.039-.221 .038-.103.111-.16.09-.293-.01-.062-.051-.12-.064-.187-.021-.114.002-.224 0-.337-.003-.2.017-.379-.078-.55-.38-.688-1.236-.929-1.975-.789-.18.035-.286.127-.442.208-.17.088-.139.166-.318.224-.081.026-.215.123-.215.223 .002.115.005.051.012.169-.021.011-.022-.005-.031-.025" fill="#fff"></path>
		
	
</pattern></defs>


	<g transform="translate(-200.076,-237.528)">
		<path d="m295.763,668.573c63.812-53.385 67.864-6.642 121.639-37.499 28.875-20.41 18.646-39.248 15.735-52.123s-2.148-20.818 10.029-20.262c9.267.425 38.642,35.928.296,75.474-53.342,55.012-77.576,8.923-135.616,49.015-49.341,34.081-11.502-13.766-12.083-14.605z" fill="#698000" stroke="#000" stroke-width="4"></path>
		<path d="m460.708,602.105c-2.957,5.315-6.524,15-11.917,20.56-53.342,55.012-86.898,19.313-130.486,49.292-20.071,13.805-25.7,14.147-25.39,9.592-6.737,11.349-10.339,22.478 20.807.963 58.04-40.09 82.251,6.345 135.042-54.072 9.057-9.341 9.287-17.854 11.944-26.335zm-22.497-44.245c-3.533,3.541-7.771,10.062-6.587,15.291 2.076,9.177 8.198,28.321 1.923,42.941 13.237-10.881 7.279-28.077 3.242-48.456-.026-4.985 1.441-8.874 1.422-9.776z" fill-opacity=".3137"></path>
	</g>
	<g transform="translate(-216.727,-178.058)">
		
			<path d="m403.705,579.483c.015,51.189-41.479,92.696-92.667,92.696s-92.683-41.507-92.667-92.696c-.016-51.188 41.478-92.693 92.667-92.693s92.682,41.504 92.667,92.693z" fill="#698000" stroke="#000" stroke-linecap="round" stroke-linejoin="round" stroke-width="3.2874"></path>
			<path d="m398.103,547.693c.064,1.422.106,2.871.106,4.309 0,51.153-41.511,92.663-92.663,92.663-39.984,0-74.103-25.38-87.085-60.885 2.245,49.163 42.87,88.38 92.583,88.38 51.152,0 92.663-41.51 92.663-92.663 .001-11.169-1.977-21.885-5.604-31.804z" fill-opacity=".3137"></path>
		
		
			<path d="m266.593,517.423c20.727-32.065 16.92-213.191 16.92-213.191h50.76c0,0-1.269,178.915 19.881,211.532" fill="#698000" stroke="#000" stroke-linecap="round" stroke-linejoin="round" stroke-width="4"></path>
			<path d="m283.504,307.611c0,0 .204,3.499.265,10.02 11.132,6.984 22.351,11.051 30.218,11.051 2.815,0 6.011-.484 9.438-1.401 5.234,28.206 14.947,169.488 30.482,188.234l-.846.291 1.084-.026c-14.558-22.451-18.471-167.637-19.511-192.676-.118-2.835-.208-5.445-.265-7.746-.043-1.839-.103-6.902-.105-7.746-3.025.124-50.76-.001-50.76-.001z" fill-opacity=".3137"></path>
		
		
			<path d="m311.034,180.058c-19.28,0-34.921,5.895-46.424,15.73-.483-.361-25.444,26.643-22.815,53.509 3.721,38.036 47.481,69.239 69.239,69.239 22.603,0 70.058-31.03 69.239-69.239-.673-31.378-22.676-53.761-23.159-53.324-11.62-9.937-27.247-15.915-46.08-15.915z" fill="#698000" stroke="#000" stroke-linecap="round" stroke-linejoin="round" stroke-width="4"></path>
			
				
					<path d="m369.499,239.148c.003,10.591-8.582,19.178-19.173,19.178s-19.176-8.587-19.173-19.178 8.582-19.178 19.173-19.178 19.176,8.587 19.173,19.178z" fill="#fff" stroke="#000" stroke-linecap="round" stroke-linejoin="round" stroke-width="4"></path>
					<path d="m352.456,242.533c.002,3.53-2.859,6.393-6.39,6.393s-6.393-2.862-6.392-6.393 2.861-6.393 6.392-6.393 6.392,2.862 6.39,6.393z"></path>
				
				
					<path d="m291.048,239.148c.003,10.591-8.583,19.178-19.173,19.178s-19.175-8.587-19.173-19.178 8.582-19.178 19.173-19.178 19.177,8.587 19.173,19.178z" fill="#fff" stroke="#000" stroke-linecap="round" stroke-linejoin="round" stroke-width="4"></path>
					<path d="m283.059,242.533c.002,3.53-2.86,6.393-6.39,6.393s-6.392-2.862-6.391-6.393 2.861-6.393 6.391-6.393 6.392,2.862 6.39,6.393z"></path>
				
			
			<path d="m373.146,216.371c1.485,6.457 3.067,13.301 3.067,20.41 0,38.217-46.638,69.239-69.24,69.239-17.517,0-51.687-20.097-64.348-47.878 6.442,34.048 48.367,60.383 68.419,60.383 22.602,0 69.24-31.022 69.24-69.239 .001-11.912-2.887-23.123-7.138-32.915z" fill-opacity=".3137"></path>
			
				<path d="m325.078,293.826c-1.94,3.361-5.499,4.939-7.949,3.524-2.451-1.415-2.864-5.287-.923-8.647s5.5-4.939 7.95-3.524c2.45,1.415 2.863,5.287.922,8.647z"></path>
				<path d="m297.382,293.826c1.94,3.361 5.5,4.939 7.95,3.524 2.451-1.415 2.864-5.287.922-8.647s-5.499-4.939-7.95-3.524c-2.449,1.415-2.862,5.287-.922,8.647z"></path>
			
		
	</g>
	
		
			<path d="m20.663,484.36c-.006,19.188 15.547,21.632 34.733,21.632s34.74-2.444 34.735-21.632c.005-19.187-16.201-29.778-34.735-34.744-28.832-7.725-34.739,15.558-34.733,34.744z" fill="#698000" stroke="#000" stroke-linecap="round" stroke-linejoin="round" stroke-width="4"></path>
			
				<path d="m82.433,495.181c1.391,5.184-2.75,7.001-8.076,8.428s-9.82,1.924-11.208-3.261c-1.391-5.183 1.801-10.542 7.126-11.97s10.77,1.619 12.158,6.803z" fill="#fff" stroke="#000" stroke-linecap="round" stroke-linejoin="round" stroke-width="4"></path>
				<path d="m47.374,500.797c-1.388,5.185-5.881,4.688-11.208,3.262s-9.467-3.245-8.077-8.429 6.832-8.23 12.158-6.803 8.518,6.786 7.127,11.97z" fill="#fff" stroke="#000" stroke-linecap="round" stroke-linejoin="round" stroke-width="4"></path>
				<path d="m64.533,499.942c.002,5.367-4.468,6.05-9.982,6.05s-9.983-.683-9.982-6.05 4.468-9.719 9.982-9.719 9.984,4.352 9.982,9.719z" fill="#fff" stroke="#000" stroke-linecap="round" stroke-linejoin="round" stroke-width="4"></path>
			
			<path d="m66.39,453.416c4.752,6.229 7.669,14.005 7.667,23.608 .006,22.692-15.552,25.592-34.738,25.592-2.969,0-5.841-.09-8.592-.291 6.293,3.055 15.016,3.675 24.665,3.675 19.187,0 34.745-2.465 34.739-21.652 .004-15.248-10.236-25.05-23.741-30.932z" fill-opacity=".3137"></path>
		
		
			<path d="m167.962,484.36c.005,19.188-15.547,21.632-34.734,21.632s-34.74-2.444-34.734-21.632c-.006-19.187 16.201-29.778 34.734-34.744 28.832-7.725 34.739,15.558 34.734,34.744z" fill="#698000" stroke="#000" stroke-linecap="round" stroke-linejoin="round" stroke-width="4"></path>
			
				<path d="m161.111,495.181c1.391,5.184-2.75,7.001-8.076,8.428s-9.82,1.924-11.208-3.261c-1.391-5.183 1.801-10.542 7.126-11.97s10.77,1.619 12.158,6.803z" fill="#fff" stroke="#000" stroke-linecap="round" stroke-linejoin="round" stroke-width="4"></path>
				<path d="m126.051,500.797c-1.388,5.185-5.881,4.688-11.207,3.262s-9.467-3.245-8.077-8.429 6.832-8.23 12.158-6.803 8.517,6.786 7.126,11.97z" fill="#fff" stroke="#000" stroke-linecap="round" stroke-linejoin="round" stroke-width="4"></path>
				<path d="m143.21,499.942c.002,5.367-4.468,6.05-9.982,6.05s-9.983-.683-9.982-6.05 4.469-9.719 9.982-9.719 9.984,4.352 9.982,9.719z" fill="#fff" stroke="#000" stroke-linecap="round" stroke-linejoin="round" stroke-width="4"></path>
			
			<path d="m148.897,448.611c8.935,6.897 11.292,20.873 11.289,33.206 .005,19.854-16.081,22.392-35.929,22.392-4.307,0-8.414-.139-12.24-.528 5.866,1.878 13.216,2.3 21.202,2.3 19.188,0 34.745-2.438 34.739-21.625 .004-15.033-3.625-32.565-19.061-35.745z" fill-opacity=".3137"></path>
		
	

</svg>
